<svg xmlns="http://www.w3.org/2000/svg" viewBox="0 0 500 500"><path style="fill:#ebebeb" d="M0 382.4h500v.25H0zM416.78 398.49h33.12v.25h-33.12zM322.53 401.21h8.69v.25h-8.69zM396.59 389.21h19.19v.25h-19.19zM52.46 390.89h43.19v.25H52.46zM104.56 390.89h6.33v.25h-6.33zM131.47 395.11h93.68v.25h-93.68zM237 337.8H43.91a5.71 5.71 0 0 1-5.7-5.71V60.66a5.71 5.71 0 0 1 5.7-5.66H237a5.71 5.71 0 0 1 5.71 5.71v271.38a5.71 5.71 0 0 1-5.71 5.71zM43.91 55.2a5.46 5.46 0 0 0-5.45 5.46v271.43a5.46 5.46 0 0 0 5.45 5.46H237a5.47 5.47 0 0 0 5.46-5.46V60.66A5.47 5.47 0 0 0 237 55.2zM453.31 337.8h-193.1a5.72 5.72 0 0 1-5.71-5.71V60.66a5.72 5.72 0 0 1 5.71-5.66h193.1a5.71 5.71 0 0 1 5.69 5.66v271.43a5.71 5.71 0 0 1-5.69 5.71zM260.21 55.2a5.47 5.47 0 0 0-5.46 5.46v271.43a5.47 5.47 0 0 0 5.46 5.46h193.1a5.47 5.47 0 0 0 5.46-5.46V60.66a5.47 5.47 0 0 0-5.46-5.46z"/><path style="fill:#e0e0e0" d="M86.17 326.58h78.35v54.91H86.17z"/><path style="fill:#f0f0f0" d="M86.17 326.58h54.91v54.91H86.17z"/><path d="M127.61 360.13c0 6-4.79 12-16 12A29.64 29.64 0 0 1 97.9 369l4-8.67a19.14 19.14 0 0 0 9.37 2.54c2.64 0 4.53-.9 4.53-2.69 0-1.5-1.14-2.39-4.13-2.39H107v-7.23l5.14-5.23H99.7v-8.87h26v7.22l-6.48 6.58c5.49 1.3 8.39 5.03 8.39 9.87zM94.37 217.66h78.35v54.91H94.37z" style="fill:#e0e0e0"/><path style="fill:#f0f0f0" d="M94.37 217.66h54.91v54.91H94.37z"/><path d="M129.4 227.49v34.88h-11.76v-26h-6v-8.87z" style="fill:#e0e0e0"/><path transform="rotate(180 144.93 299.575)" style="fill:#e0e0e0" d="M105.76 272.12h78.35v54.91h-78.35z"/><path transform="rotate(180 156.65 299.575)" style="fill:#ebebeb" d="M129.19 272.12h54.91v54.91h-54.91z"/><path d="M171.09 308.71v9.12h-28v-7.22L155.74 299c2.39-2.24 2.74-3.59 2.74-4.79 0-1.69-1.15-2.74-3.39-2.74a5.7 5.7 0 0 0-5.13 3.24l-8.87-4.43c2.54-4.79 7.57-8.08 15.1-8.08 8.27 0 14.1 4.29 14.1 10.92 0 3.44-.9 6.53-6 11.11l-5 4.53z" style="fill:#fafafa"/><path d="M409.16 368.5H328.5l2.88-4.59c9.88-15.77 21.75-34.8 32.61-52.34l-33.15-49.74 5-3.33 31.63 47.5c15.21-24.58 27.69-45 28.65-47.35a2.39 2.39 0 0 0-.16.91h6c0 1.24 0 2.15-30.84 51.93zm-69.83-6H398l-30.3-45.45c-11.7 18.74-23.17 37.15-28.37 45.45z" style="fill:#e0e0e0"/><path d="M303.19 221.54c50.14-1.76 55.16 41.81 55.16 41.81l23.5-3s-13.85 60.92-41.21 65.14-54.73-8.81-65.57-59.94c-.83-3.89-.96-42.99 28.12-44.01z" style="fill:#f0f0f0"/><path d="M279.65 267.69s11.7 53 34.8 53.29 26.19-55.43 26.19-55.43z" style="fill:#e6e6e6"/><path d="M404.74 271.66h-152.8a12.16 12.16 0 0 1-12.16-12.17 12.16 12.16 0 0 1 12.16-12.16h152.8a12.17 12.17 0 0 1 12.17 12.16 12.17 12.17 0 0 1-12.17 12.17zM405.14 369.25h-153.6a4.75 4.75 0 0 1-4.75-4.75 4.75 4.75 0 0 1 4.75-4.75h153.6a4.74 4.74 0 0 1 4.75 4.75 4.75 4.75 0 0 1-4.75 4.75z" style="fill:#e0e0e0"/><path d="M329.1 368.5h-80.65l2.87-4.59c9.89-15.77 21.76-34.8 32.62-52.34l-33.15-49.74 5-3.33 31.63 47.5c15.21-24.58 27.69-45 28.65-47.35a2.39 2.39 0 0 0-.16.91h6c0 1.24 0 2.15-30.84 51.93zm-69.82-6h58.62l-30.3-45.45c-11.6 18.74-23.12 37.15-28.32 45.45z" style="fill:#e0e0e0"/><ellipse cx="252.4" cy="376" rx="8.24" ry="8.74" style="fill:#e0e0e0"/><ellipse cx="250.14" cy="376" rx="4.87" ry="5.16" style="fill:#ebebeb"/><ellipse cx="319.44" cy="376" rx="8.24" ry="8.74" style="fill:#e0e0e0"/><ellipse cx="317.19" cy="376" rx="4.87" ry="5.16" style="fill:#ebebeb"/><ellipse cx="404.49" cy="376" rx="8.24" ry="8.74" style="fill:#e0e0e0"/><path d="M407.11 376a4.87 4.87 0 1 1-4.87-5.16 5 5 0 0 1 4.87 5.16z" style="fill:#ebebeb"/><ellipse cx="337.45" cy="376" rx="8.24" ry="8.74" style="fill:#e0e0e0"/><path d="M340.06 376a4.87 4.87 0 1 1-4.86-5.16 5 5 0 0 1 4.86 5.16z" style="fill:#ebebeb"/><path style="fill:#e0e0e0" d="M120.46 69.27h1.4v77.79h-1.4zM192.28 69.27h1.4v70.91h-1.4zM255 69.27h1.4v86.54H255zM319.23 69.27h1.4v77.79h-1.4zM381.93 69.27h1.4v82.6h-1.4z"/><path transform="rotate(-19.7 120.704 164.211)" style="fill:#e0e0e0" d="M93.52 137.02h54.44v54.44H93.52z"/><path d="m129.69 144 10.81 30.18-8.5 3.06-4.21-11.77-11.64 4.17 4.21 11.77-8.54 3.06L101 154.29l8.53-3.06 4.06 11.34 11.65-4.17-4.06-11.34z" style="fill:#f5f5f5"/><path transform="rotate(12.06 191.608 143.35)" style="fill:#f5f5f5" d="M164.42 116.15h54.44v54.44h-54.44z"/><path d="m196.13 154.35-13.26-2.83-3.76 5.56-9.05-1.93 20.54-28.39 8.73 1.86 7.19 34.32-9.23-2zm-1.2-7.09-1.93-10.9-6.17 9.17z" style="fill:#e0e0e0"/><path transform="rotate(-11.37 255.679 161.242)" style="fill:#e0e0e0" d="M228.52 134.03h54.44v54.44h-54.44z"/><path d="M269.08 154.32c1.44 7.14-3.06 12.67-11.64 14.39l-5.47 1.1 1.65 8.22-8.89 1.78-6.32-31.43 14.37-2.88c8.57-1.73 14.86 1.63 16.3 8.82zm-9 1.8c-.59-2.92-2.77-4.25-6.45-3.51l-4.94 1 1.85 9.21 4.94-1c3.7-.75 5.2-2.82 4.62-5.7z" style="fill:#f5f5f5"/><path transform="rotate(2.58 322.011 143.145)" style="fill:#f5f5f5" d="M294.71 116.03h54.44v54.44h-54.44z"/><path d="M336.55 139.74c-.33 7.27-6 11.56-14.76 11.16l-5.59-.25-.37 8.37-9.06-.4 1.44-32 14.64.66c8.74.36 14.03 5.14 13.7 12.46zm-9.15-.41c.13-3-1.67-4.8-5.42-5l-5-.23-.42 9.38 5 .23c3.75.2 5.7-1.45 5.84-4.38z" style="fill:#e0e0e0"/><path transform="rotate(-5.77 384.056 163.582)" style="fill:#e0e0e0" d="M357.03 136.39h54.44v54.44h-54.44z"/><path d="m389.19 167.66 1.16 11.44-9 .91-1.17-11.57-14.21-19.09 9.52-1 8.84 11.91 6.29-13.43 8.75-.89z" style="fill:#f5f5f5"/><g><ellipse cx="250" cy="416.24" rx="193.89" ry="11.32" style="fill:#f5f5f5"/></g><g><rect x="383.07" y="343.06" width="35.45" height="49.73" rx="2.09" transform="rotate(116.71 400.804 367.902)" style="fill:#0065ff"/><rect x="383.07" y="343.06" width="35.45" height="49.73" rx="2.09" transform="rotate(116.71 400.804 367.902)" style="fill:#fff;opacity:.2"/><rect x="394.85" y="335.8" width="19.19" height="49.73" rx="2.09" transform="rotate(116.71 404.45 360.643)" style="fill:#fff;opacity:.2"/><path d="M423.41 362.07c.26-.52 1.95-3.87 2.21-4.4.82-1.61-1.65-4.5-5.5-6.44s-7.64-2.2-8.45-.58l-2.21 4.4c-.82 1.62 1.65 4.5 5.5 6.44s7.64 2.2 8.45.58z" style="fill:#0065ff"/><path d="M423.41 362.07c.26-.52 1.95-3.87 2.21-4.4.82-1.61-1.65-4.5-5.5-6.44s-7.64-2.2-8.45-.58l-2.21 4.4c-.82 1.62 1.65 4.5 5.5 6.44s7.64 2.2 8.45.58z" style="fill:#fff;opacity:.1"/><path d="M417.17 357.09c-3.85-1.94-6.32-4.82-5.5-6.44s4.6-1.35 8.45.58 6.32 4.83 5.5 6.44-4.62 1.33-8.45-.58z" style="fill:#fff;opacity:.2"/><path d="M406 353.3c.27-.53 1.95-3.88 2.22-4.4.81-1.62-1.66-4.5-5.51-6.44s-7.64-2.2-8.45-.58c-.26.52-2 3.87-2.21 4.4-.82 1.61 1.65 4.5 5.5 6.44s7.61 2.19 8.45.58z" style="fill:#0065ff"/><path d="M406 353.3c.27-.53 1.95-3.88 2.22-4.4.81-1.62-1.66-4.5-5.51-6.44s-7.64-2.2-8.45-.58c-.26.52-2 3.87-2.21 4.4-.82 1.61 1.65 4.5 5.5 6.44s7.61 2.19 8.45.58z" style="fill:#fff;opacity:.1"/><path d="M399.73 348.32c-3.85-1.94-6.31-4.82-5.5-6.44s4.6-1.36 8.45.58 6.32 4.82 5.51 6.44-4.6 1.36-8.46-.58z" style="fill:#fff;opacity:.2"/><path d="M418.3 372.23c.26-.53 1.95-3.88 2.21-4.4.82-1.62-1.65-4.5-5.5-6.44s-7.64-2.2-8.45-.58c-.27.52-1.95 3.87-2.21 4.4-.82 1.62 1.65 4.5 5.5 6.44s7.64 2.2 8.45.58z" style="fill:#0065ff"/><path d="M418.3 372.23c.26-.53 1.95-3.88 2.21-4.4.82-1.62-1.65-4.5-5.5-6.44s-7.64-2.2-8.45-.58c-.27.52-1.95 3.87-2.21 4.4-.82 1.62 1.65 4.5 5.5 6.44s7.64 2.2 8.45.58z" style="fill:#fff;opacity:.1"/><path d="M412.06 367.25c-3.85-1.94-6.32-4.82-5.5-6.44s4.59-1.36 8.45.58 6.32 4.82 5.5 6.44-4.59 1.36-8.45-.58z" style="fill:#fff;opacity:.2"/><path d="m400.86 363.46 2.21-4.4c.82-1.62-1.65-4.5-5.5-6.44s-7.64-2.2-8.45-.58c-.26.52-1.95 3.87-2.21 4.4-.82 1.61 1.65 4.49 5.5 6.43s7.64 2.2 8.45.59z" style="fill:#0065ff"/><path d="m400.86 363.46 2.21-4.4c.82-1.62-1.65-4.5-5.5-6.44s-7.64-2.2-8.45-.58c-.26.52-1.95 3.87-2.21 4.4-.82 1.61 1.65 4.49 5.5 6.43s7.64 2.2 8.45.59z" style="fill:#fff;opacity:.1"/><path d="M394.62 358.48c-3.85-1.94-6.31-4.83-5.5-6.44s4.6-1.36 8.45.58 6.32 4.82 5.5 6.44-4.59 1.35-8.45-.58z" style="fill:#fff;opacity:.2"/><rect x="337.84" y="366.81" width="49.73" height="49.73" rx="2.83" style="fill:#263238"/><rect x="337.84" y="366.81" width="49.73" height="49.73" rx="2.83" style="fill:#fff;opacity:.30000000000000004"/><rect x="337.84" y="366.81" width="35.42" height="49.73" rx="2.83" style="fill:#fff;opacity:.2"/><path d="M345.28 374.1h-5.95c-3.34 0-6.05 3.5-6.05 7.81s2.71 7.81 6.05 7.81h5.95c3.34 0 6.05-3.49 6.05-7.81s-2.71-7.81-6.05-7.81z" style="fill:#263238"/><path d="M345.28 374.1h-5.95c-3.34 0-6.05 3.5-6.05 7.81s2.71 7.81 6.05 7.81h5.95c3.34 0 6.05-3.49 6.05-7.81s-2.71-7.81-6.05-7.81z" style="fill:#fff;opacity:.2"/><ellipse cx="339.33" cy="381.91" rx="6.05" ry="7.81" style="fill:#fff;opacity:.2"/><path d="M345.28 393.62h-5.95c-3.34 0-6.05 3.5-6.05 7.81s2.71 7.81 6.05 7.81h5.95c3.34 0 6.05-3.49 6.05-7.81s-2.71-7.81-6.05-7.81z" style="fill:#263238"/><path d="M345.28 393.62h-5.95c-3.34 0-6.05 3.5-6.05 7.81s2.71 7.81 6.05 7.81h5.95c3.34 0 6.05-3.49 6.05-7.81s-2.71-7.81-6.05-7.81z" style="fill:#fff;opacity:.2"/><ellipse cx="339.33" cy="401.43" rx="6.05" ry="7.81" style="fill:#fff;opacity:.2"/><path d="M363.13 374.1h-5.95c-3.34 0-6.05 3.5-6.05 7.81s2.71 7.81 6.05 7.81h5.95c3.34 0 6.05-3.49 6.05-7.81s-2.71-7.81-6.05-7.81z" style="fill:#263238"/><path d="M363.13 374.1h-5.95c-3.34 0-6.05 3.5-6.05 7.81s2.71 7.81 6.05 7.81h5.95c3.34 0 6.05-3.49 6.05-7.81s-2.71-7.81-6.05-7.81z" style="fill:#fff;opacity:.2"/><ellipse cx="357.18" cy="381.91" rx="6.05" ry="7.81" style="fill:#fff;opacity:.2"/><path d="M363.13 393.62h-5.95c-3.34 0-6.05 3.5-6.05 7.81s2.71 7.81 6.05 7.81h5.95c3.34 0 6.05-3.49 6.05-7.81s-2.71-7.81-6.05-7.81z" style="fill:#263238"/><path d="M363.13 393.62h-5.95c-3.34 0-6.05 3.5-6.05 7.81s2.71 7.81 6.05 7.81h5.95c3.34 0 6.05-3.49 6.05-7.81s-2.71-7.81-6.05-7.81z" style="fill:#fff;opacity:.2"/><ellipse cx="357.18" cy="401.43" rx="6.05" ry="7.81" style="fill:#fff;opacity:.2"/><rect x="388.53" y="373.95" width="35.45" height="49.73" rx="2.09" transform="rotate(90 406.25 398.81)" style="fill:#0065ff"/><rect x="388.53" y="373.95" width="35.45" height="49.73" rx="2.09" transform="rotate(90 406.25 398.81)" style="fill:#fff;opacity:.6000000000000001"/><rect x="396.65" y="365.82" width="19.19" height="49.73" rx="2.09" transform="rotate(90 406.255 390.685)" style="fill:#fff;opacity:.2"/><path d="M423.82 383.42v-4.92c0-1.81-3.49-3.28-7.81-3.28s-7.81 1.47-7.81 3.28v4.92c0 1.81 3.5 3.28 7.81 3.28s7.81-1.47 7.81-3.28z" style="fill:#0065ff"/><path d="M423.82 383.42v-4.92c0-1.81-3.49-3.28-7.81-3.28s-7.81 1.47-7.81 3.28v4.92c0 1.81 3.5 3.28 7.81 3.28s7.81-1.47 7.81-3.28z" style="fill:#fff;opacity:.5"/><path d="M416 381.78c-4.31 0-7.81-1.47-7.81-3.28s3.5-3.28 7.81-3.28 7.81 1.47 7.81 3.28-3.48 3.28-7.81 3.28z" style="fill:#fff;opacity:.2"/><path d="M404.3 383.42v-4.92c0-1.81-3.5-3.28-7.81-3.28s-7.81 1.47-7.81 3.28v4.92c0 1.81 3.5 3.28 7.81 3.28s7.81-1.47 7.81-3.28z" style="fill:#0065ff"/><path d="M404.3 383.42v-4.92c0-1.81-3.5-3.28-7.81-3.28s-7.81 1.47-7.81 3.28v4.92c0 1.81 3.5 3.28 7.81 3.28s7.81-1.47 7.81-3.28z" style="fill:#fff;opacity:.5"/><path d="M396.49 381.78c-4.31 0-7.81-1.47-7.81-3.28s3.5-3.28 7.81-3.28 7.81 1.47 7.81 3.28-3.5 3.28-7.81 3.28z" style="fill:#fff;opacity:.2"/><path d="M423.82 394.79v-4.92c0-1.81-3.49-3.28-7.81-3.28s-7.81 1.47-7.81 3.28v4.92c0 1.81 3.5 3.28 7.81 3.28s7.81-1.47 7.81-3.28z" style="fill:#0065ff"/><path d="M423.82 394.79v-4.92c0-1.81-3.49-3.28-7.81-3.28s-7.81 1.47-7.81 3.28v4.92c0 1.81 3.5 3.28 7.81 3.28s7.81-1.47 7.81-3.28z" style="fill:#fff;opacity:.5"/><path d="M416 393.15c-4.31 0-7.81-1.47-7.81-3.28s3.5-3.28 7.81-3.28 7.81 1.47 7.81 3.28-3.48 3.28-7.81 3.28z" style="fill:#fff;opacity:.2"/><path d="M404.3 394.79v-4.92c0-1.81-3.5-3.28-7.81-3.28s-7.81 1.47-7.81 3.28v4.92c0 1.81 3.5 3.28 7.81 3.28s7.81-1.47 7.81-3.28z" style="fill:#0065ff"/><path d="M404.3 394.79v-4.92c0-1.81-3.5-3.28-7.81-3.28s-7.81 1.47-7.81 3.28v4.92c0 1.81 3.5 3.28 7.81 3.28s7.81-1.47 7.81-3.28z" style="fill:#fff;opacity:.5"/><path d="M396.49 393.15c-4.31 0-7.81-1.47-7.81-3.28s3.5-3.28 7.81-3.28 7.81 1.47 7.81 3.28-3.5 3.28-7.81 3.28z" style="fill:#fff;opacity:.2"/></g><g><path style="fill:#263238" d="M143.22 410.45v6.09H66.91v-6.09l19.35-7.66h37.61l19.35 7.66z"/><path style="fill:#fff;opacity:.2" d="M143.22 410.45v.06H66.91v-.06l19.35-7.66h37.61l19.35 7.66z"/><path d="M103.51 321.19c5.7-.58 3.75-5.34 6.13-8.51s8.31-3.36 9.49 3.17 0 23.2-14.25 23.77-15.65-21-15.65-21 4.58 3.56 14.28 2.57z" style="fill:#0065ff"/><path d="M103.51 321.19c5.7-.58 3.75-5.34 6.13-8.51s8.31-3.36 9.49 3.17 0 23.2-14.25 23.77-15.65-21-15.65-21 4.58 3.56 14.28 2.57z" style="fill:#fff;opacity:.5"/><path d="M118.89 314.82s4 .83 4.2 2-4.2 2.14-4.2 2.14-3.12-1.43-3.12-2.08 3.12-2.06 3.12-2.06zM114.24 315.28a.92.92 0 1 1-.92-.92.92.92 0 0 1 .92.92zM130.84 406.92h-51.9a5.72 5.72 0 0 1-5.7-5.7 5.72 5.72 0 0 1 5.7-5.7h51.9a5.72 5.72 0 0 1 5.7 5.7 5.72 5.72 0 0 1-5.7 5.7z" style="fill:#0065ff"/><path d="M126.83 395.54H82.94a5.72 5.72 0 0 1-5.7-5.7 5.71 5.71 0 0 1 5.7-5.7h43.89a5.71 5.71 0 0 1 5.7 5.7 5.72 5.72 0 0 1-5.7 5.7z" style="fill:#263238"/><path d="M122.82 384.15H86.94a5.71 5.71 0 0 1-5.7-5.69 5.71 5.71 0 0 1 5.7-5.7h35.88a5.71 5.71 0 0 1 5.7 5.7 5.71 5.71 0 0 1-5.7 5.69z" style="fill:#0065ff"/><path d="M118.82 372.77H90.93a5.71 5.71 0 0 1-5.7-5.69 5.72 5.72 0 0 1 5.7-5.7h27.89a5.72 5.72 0 0 1 5.7 5.7 5.71 5.71 0 0 1-5.7 5.69z" style="fill:#263238"/><path d="M114.81 361.39H94.93a5.72 5.72 0 0 1-5.7-5.7 5.71 5.71 0 0 1 5.7-5.69h19.88a5.71 5.71 0 0 1 5.7 5.69 5.72 5.72 0 0 1-5.7 5.7z" style="fill:#0065ff"/><path d="M110.8 350H98.93a5.71 5.71 0 0 1-5.7-5.7 5.72 5.72 0 0 1 5.7-5.7h11.87a5.72 5.72 0 0 1 5.7 5.7 5.71 5.71 0 0 1-5.7 5.7z" style="fill:#263238"/><path d="M126.83 395.54H82.94a5.72 5.72 0 0 1-5.7-5.7 5.71 5.71 0 0 1 5.7-5.7h43.89a5.71 5.71 0 0 1 5.7 5.7 5.72 5.72 0 0 1-5.7 5.7z" style="fill:#fff;opacity:.2"/><path d="M122.82 384.15H86.94a5.71 5.71 0 0 1-5.7-5.69 5.71 5.71 0 0 1 5.7-5.7h35.88a5.71 5.71 0 0 1 5.7 5.7 5.71 5.71 0 0 1-5.7 5.69z" style="fill:#fff;opacity:.2"/><path d="M118.82 372.77H90.93a5.71 5.71 0 0 1-5.7-5.69 5.72 5.72 0 0 1 5.7-5.7h27.89a5.72 5.72 0 0 1 5.7 5.7 5.71 5.71 0 0 1-5.7 5.69z" style="fill:#fff;opacity:.4"/><path d="M114.81 361.39H94.93a5.72 5.72 0 0 1-5.7-5.7 5.71 5.71 0 0 1 5.7-5.69h19.88a5.71 5.71 0 0 1 5.7 5.69 5.72 5.72 0 0 1-5.7 5.7z" style="fill:#fff;opacity:.4"/><path d="M110.8 350H98.93a5.71 5.71 0 0 1-5.7-5.7 5.72 5.72 0 0 1 5.7-5.7h11.87a5.72 5.72 0 0 1 5.7 5.7 5.71 5.71 0 0 1-5.7 5.7z" style="fill:#fff;opacity:.6000000000000001"/></g><g><path d="m155.1 138.54 37-8a11.64 11.64 0 0 1 13.85 8.91l7 32.17a11.64 11.64 0 0 1-8.95 13.81l-5.6 1.22 3.49 9.88-11.22-8.2-23.63 5.14a11.65 11.65 0 0 1-13.86-8.91l-7-32.16a11.65 11.65 0 0 1 8.92-13.86z" style="fill:#0065ff"/><path d="m155.1 138.54 37-8a11.64 11.64 0 0 1 13.85 8.91l7 32.17a11.64 11.64 0 0 1-8.95 13.81l-5.6 1.22 3.49 9.88-11.22-8.2-23.63 5.14a11.65 11.65 0 0 1-13.86-8.91l-7-32.16a11.65 11.65 0 0 1 8.92-13.86z" style="fill:#fff;opacity:.7000000000000001"/><path d="M178.14 155.47c-9.1-6.11-16.73-1.12-15.1 6.4s19.65 14.5 19.65 14.5 13.48-13.83 11.85-21.35-10.65-8.89-16.4.45z" style="fill:#0065ff"/></g><g><path d="M232.69 252.94c-.9.61-1.66 1.08-2.5 1.58s-1.66 1-2.5 1.42c-1.68.92-3.4 1.77-5.18 2.58s-3.6 1.58-5.54 2.28a52.19 52.19 0 0 1-6.36 1.87 28.66 28.66 0 0 1-4.2.62h-2.11l-1.86-.17a36.36 36.36 0 0 1-6.35-1.46 49.79 49.79 0 0 1-5.58-2.2 41.1 41.1 0 0 1-5.24-2.89 5.43 5.43 0 0 1 2.29-9.94h.43c3.5-.42 7.09-.49 10.31-.79a40.57 40.57 0 0 0 4.4-.53l.83-.2.58-.22a6 6 0 0 1 1.06-.55c1.05-.5 2.38-1.19 3.73-1.93s2.78-1.53 4.2-2.36l4.34-2.5 2.19-1.24c.72-.4 1.51-.83 2.15-1.16l.3-.15a10.46 10.46 0 0 1 10.61 18z" style="fill:#e4897b"/><path d="M232.69 252.94c-.9.61-1.66 1.08-2.5 1.58s-1.66 1-2.5 1.42c-1.68.92-3.4 1.77-5.18 2.58s-3.6 1.58-5.54 2.28a52.19 52.19 0 0 1-6.36 1.87 28.66 28.66 0 0 1-4.2.62h-2.11l-1.86-.17a36.36 36.36 0 0 1-6.35-1.46 49.79 49.79 0 0 1-5.58-2.2 41.1 41.1 0 0 1-5.24-2.89 5.43 5.43 0 0 1 2.29-9.94h.43c3.5-.42 7.09-.49 10.31-.79a40.57 40.57 0 0 0 4.4-.53l.83-.2.58-.22a6 6 0 0 1 1.06-.55c1.05-.5 2.38-1.19 3.73-1.93s2.78-1.53 4.2-2.36l4.34-2.5 2.19-1.24c.72-.4 1.51-.83 2.15-1.16l.3-.15a10.46 10.46 0 0 1 10.61 18z" style="opacity:.1"/><path d="m184.53 235.68 1.63 2.25s6.51 7.19 7.53 14.54l-1.67 1a9.67 9.67 0 0 1-8.86.56l-2.71-1.18-4.47-2a5.22 5.22 0 0 1-3-3.69l-.91-4.37a5 5 0 0 1 1.9-5.09l4.13-2.9.39-.27a4.32 4.32 0 0 1 6.04 1.15z" style="fill:#e4897b"/><path d="M220.11 257.51 207 239.41s20.65-12 28.73-2.75-15.62 20.85-15.62 20.85z" style="fill:#0065ff"/><path d="M228.74 252.28a65.53 65.53 0 0 1-8.63 5.23l-3.82-5.29-9.29-12.81s20.65-12 28.74-2.75c4.67 5.34-1.18 11.41-7 15.62z" style="fill:#fff;opacity:.5"/><path d="M228.74 252.28a65.53 65.53 0 0 1-8.63 5.23l-3.82-5.29a36.62 36.62 0 0 1 8.59-9.75 21.33 21.33 0 0 1 3.86 9.81zM184.53 235.68l1.63 2.25s6.51 7.19 7.53 14.54l-1.67 1a9.67 9.67 0 0 1-8.86.56l-2.71-1.18-4.47-2a5.22 5.22 0 0 1-3-3.69l-.91-4.37a5 5 0 0 1 1.9-5.09l4.13-2.9.39-.27a4.32 4.32 0 0 1 6.04 1.15z" style="opacity:.1"/><path d="M175.36 359.09s-11.5-35 6.46-53.18 112.94-4.56 112.94-4.56l-6.18 41.74S214 329.17 208.1 332.4s-10.69 34.74-10.69 34.74z" style="fill:#e4897b"/><path d="M193.85 299.91s9.1 22.94 14.25 32.49c3.16 5.87 36.84 8.46 62.33 9.58a27.47 27.47 0 0 0 27.41-35.64 55.77 55.77 0 0 0-6-13s-75.84.93-97.99 6.57z" style="fill:#263238"/><path d="M191.34 362.86s1.33 11-4.4 14.45-13-3.26-19.51-6.66-14.76-5.37-13.22-12.35 7.39 4.83 20.07-.74z" style="fill:#e4897b"/><path d="M161.73 386.23s-5.18 18.61 0 25.17c2.32 2.94 16 3.83 19.35 1.63 6.59-4.31 4.75-23.24 4.75-23.24z" style="fill:#263238"/><path d="M329.29 395.59s-115.77 12.11-181 0c0 0 1.83-15.34 5.74-24.2a21.45 21.45 0 0 1 1.8-3.33 16.15 16.15 0 0 1 6-4.76c.58-.3 1.17-.58 1.78-.84a73.93 73.93 0 0 1 17-4.65s6.76-21.3 13-29.52a12.52 12.52 0 0 1 2-2.16c6.72-5.53 89-1.78 100.28 6.14 2.64 1.85 5.54 5.67 8.21 9.89a162.1 162.1 0 0 1 9.4 17.6s13 .09 16 9.37-.21 26.46-.21 26.46z" style="fill:#0065ff"/><path d="M183.85 358a632.35 632.35 0 0 1 70.15 2s1.24-16.43.93-18.63-33.14-7.61-33.14-7.61-5.53-4.49-7.91-6.46-19 3.95-19 3.95-8.26 14.68-11.03 26.75z" style="fill:#fff"/><path d="M234.27 351.18a2.38 2.38 0 1 1-2.32-2.9 2.66 2.66 0 0 1 2.32 2.9zM201.6 350a2.38 2.38 0 1 1-2.32-2.9 2.66 2.66 0 0 1 2.32 2.9zM223.24 376.27a13.89 13.89 0 0 1-.89 1.79 25.61 25.61 0 0 1-3 4.19c-4.4 5.1-13.15 11.58-29.06 11.25-6.7-.14-11.68-1.34-15.38-3.05-10.73-4.95-10.73-14.18-10.73-14.18s1.22.38 3.44.89a120.51 120.51 0 0 0 55.62-.89z" style="fill:#263238"/><path d="M219.37 382.25c-4.4 5.1-13.15 11.58-29.06 11.25-6.7-.14-11.68-1.34-15.38-3.05a84.64 84.64 0 0 1 44.44-8.2z" style="fill:#de5753"/><path d="M223.24 376.27a13.89 13.89 0 0 1-.89 1.79c-27.52 7.62-54.71 1.12-54.71 1.12v-2a120.51 120.51 0 0 0 55.6-.91z" style="fill:#fff"/><ellipse cx="256.79" cy="400.12" rx="11.86" ry="16.03" style="fill:#263238"/><ellipse cx="259.34" cy="399.49" rx="7.18" ry="9.7" style="fill:#fff;opacity:.2"/><path d="M245.06 397.76c-1.55 3-10.79 3.16-10.79 3.16s.47 9.07 6.14 13 16.38 2.21 16.38 2.21z" style="fill:#263238"/><ellipse cx="311.64" cy="397.57" rx="11.86" ry="16.03" style="fill:#263238"/><ellipse cx="314.19" cy="396.94" rx="7.18" ry="9.7" style="fill:#fff;opacity:.2"/><path d="M299.92 395.21c-1.56 3-10.79 3.15-10.79 3.15s.47 9.07 6.14 13 16.37 2.21 16.37 2.21z" style="fill:#263238"/><path d="m149.39 388.23-3.39 3s1.23 14.05 3.39 14.73 67.48 5.45 73.85 4.65 14.41-3 16.32-4.4 0-12.74 0-12.74-21 3.76-35.8 3.45-48.53-.54-50.9-3.45a28.3 28.3 0 0 1-3.47-5.24z" style="fill:#0065ff"/><path d="M240.41 364.4c-.58-.1-12.45 2.8-14.23 4.71s3.45 11.13 3.45 11.13 2.16 1.3 2.32 0 5.88-10.6 8.46-12.38 0-3.46 0-3.46zM159.43 377.44h-2.77l-2.66-6.05a21.45 21.45 0 0 1 1.8-3.33 16.15 16.15 0 0 1 6-4.76s-3.06 9.49-2.37 14.14z" style="fill:#fff;opacity:.7000000000000001"/><path d="M253.87 361c-24.13 1.11-34.5 11.47-34.5 11.47s-55.89-.11-56.68-3.4c-.53-2.18.3-5 .92-6.66a73.93 73.93 0 0 1 17-4.65c-8.08 2.6-8.84 5.49-8.84 5.49 2.21-2.58 9.66-4.14 9.66-4.14 20.57-1.35 72.44 1.89 72.44 1.89zM304.21 342.14a54.93 54.93 0 0 0-16.71-4.95c-14.44-1.58-27.5 1.58-29.28 1.19s-35-7.52-35-7.52-6-6.13-8.14-6.72-17.6 2.77-21.38 4.13a12.52 12.52 0 0 1 2-2.16c6.72-5.53 89-1.78 100.28 6.14 2.66 1.85 5.56 5.67 8.23 9.89z" style="fill:#fff;opacity:.2"/><path d="M259.34 359s.07-15.47 1.26-16.53 16.17-1.61 18-1 5.14 17.53 5.14 17.53zM287.5 359l-4.5-17.62s17.6-.16 19 2.08 9.7 16.55 9.7 16.55z" style="fill:#fff"/><path d="m149.39 388.23-3.39 3s1.23 14.05 3.39 14.73 67.48 5.45 73.85 4.65 14.41-3 16.32-4.4 0-12.74 0-12.74-21 3.76-35.8 3.45-48.53-.54-50.9-3.45a28.3 28.3 0 0 1-3.47-5.24z" style="fill:#fff;opacity:.7000000000000001"/><path style="opacity:.2" d="m216.49 400.98 1.38 6.17-12.26-.51v-3.76l10.88-1.9zM151.59 396.94l8.32 3.18v3.94l-8.32-1.18v-5.94z"/><circle cx="214.33" cy="404.08" r="1.85" style="fill:#fff;opacity:.2"/><circle cx="153.99" cy="400.24" r="1.85" style="fill:#fff;opacity:.2"/><path d="M209.78 404.08a1.59 1.59 0 1 1-1.59-1.58 1.59 1.59 0 0 1 1.59 1.58zM159.49 401.7a1.59 1.59 0 1 1-1.58-1.58 1.59 1.59 0 0 1 1.58 1.58z" style="fill:#fff;opacity:.2"/><circle cx="231.34" cy="372.39" r="3.28" style="fill:#fff"/><path d="M159.55 372.37c-.52 1.73-1.73 2.9-2.7 2.61s-1.34-1.93-.82-3.67 1.73-2.9 2.7-2.61 1.34 1.93.82 3.67zM238 368.53a1.84 1.84 0 1 1-1.84-1.84 1.84 1.84 0 0 1 1.84 1.84zM160.26 366.89c-.54.86-1.37 1.31-1.85 1s-.43-1.24.11-2.1 1.37-1.31 1.85-1 .43 1.21-.11 2.1z" style="fill:#fff"/><path d="M274.69 336.85c-7.17-.36-20.82-5.05-24-15.87-6-20.59 41.42-28.19 46.58-16.29 7.35 16.92.54 33.31-22.58 32.16z" style="fill:#263238"/><path d="M296.84 360.66s8.85 6.67 7.35 13.19-11.38 7.11-18.33 9.42-14.1 6.91-18.07 1 8.61-2 13.4-15z" style="fill:#e4897b"/><path d="M281.15 370.08s-45.26-45.36-25.4-59.82c21.06-15.35 37.14 33.18 43.55 55.92z" style="fill:#e4897b"/><path d="M216.29 244.31c-2.84-10.55-12.1-15.17-23.49-14.1-4.78.45-20.52 7.61-19.18 25.72 1.15 15.44 18.26 23.25 30.69 17.45s14.82-18.51 11.98-29.07zM204.93 253a12.22 12.22 0 0 1-10.61 11.37c-5.21.51-12.45-8.13-5.72-18.45 2.26-3.47 7.32-4.31 10.32-3.41s6.31 4.31 6.01 10.49z" style="fill:#263238"/><path d="M216.29 244.31c-2.84-10.55-12.1-15.17-23.49-14.1-4.78.45-20.52 7.61-19.18 25.72 1.15 15.44 18.26 23.25 30.69 17.45s14.82-18.51 11.98-29.07zM204.93 253a12.22 12.22 0 0 1-10.61 11.37c-5.21.51-12.45-8.13-5.72-18.45 2.26-3.47 7.32-4.31 10.32-3.41s6.31 4.31 6.01 10.49z" style="fill:#fff;opacity:.2"/><path d="M214.39 256.74a11.29 11.29 0 0 1-.22-1.92c.07-1 .75-1.92.63-2.92a16.5 16.5 0 0 0-.67-1.9 5.25 5.25 0 0 1 0-2.64 4.44 4.44 0 0 0 .36-1.67 2.38 2.38 0 0 0-1-1.55c-.79-.64-1.36-.81-1.51-2-.07-.5-.07-1-.15-1.5a1.84 1.84 0 0 0-.2-.64c-.44-.76-1.31-.88-1.58-1.78-.17-.52-.2-1.06-.4-1.55a19.9 19.9 0 0 0-12-6.3 18.86 18.86 0 0 0-3.26-.17c-2.19.41-4.73 1-7.08 1.56a22.75 22.75 0 0 0-13.41 18.08 24.15 24.15 0 0 0 .46 8.89c1.17 1.49 2.55 2.58 2.87 4.75a3.3 3.3 0 0 0 .46 1.66c.49.62 1.41.58 2 1 .8.55 1 1.68 1.44 2.56.74 1.41 2 1.37 3.06 2.29a4.82 4.82 0 0 0 3.08 1.64 2.91 2.91 0 0 1 1.65.2 4.9 4.9 0 0 0 1.77.88 2.27 2.27 0 0 0 1-.2 2.69 2.69 0 0 1 1-.22c.5 0 1.08.59 1.57.81a3 3 0 0 0 2.49.24c.81-.42 1.3-1.33 2.12-1.73a4.32 4.32 0 0 1 1.86-.32 5 5 0 0 0 3.68-1.38 5.5 5.5 0 0 1 .63-.73 3.43 3.43 0 0 1 1.34-.62 3.36 3.36 0 0 0 1.43-.79 6.84 6.84 0 0 0 1.05-2.23 2.17 2.17 0 0 1 1.43-1.34c.53-.14.86-.07 1.21-.64.64-1.05.36-2.5 1-3.59.83-1.44 2.07-2.21 1.89-4.23zM200 262.47c-.7.82-1.3 1-2.31 2.19a2.37 2.37 0 0 1-2.54 1c-.59-.12-1.12-.14-1.68-.2s-1.1-.73-1.7-1a3.46 3.46 0 0 0-2.09-.06 2.28 2.28 0 0 1-2-.38 7.84 7.84 0 0 1-.72-1.14c-.67-1-1.94-1.39-2.68-2.35 0-.34-1-1.54-1.1-2a7 7 0 0 1 .19-2.48.85.85 0 0 0 0-.42 1 1 0 0 0-.3-.34 3.15 3.15 0 0 1-.78-3.44c.25-.61.69-1.11 1-1.7.68-1.28.13-3.63 1.18-4.63a6.15 6.15 0 0 1 .94-.53c.9-.6.9-2.06 1.72-2.78a2.26 2.26 0 0 1 1.12-.49c1-.19 1.88.15 2.77-.21a14.94 14.94 0 0 0 2.26-1.29 3 3 0 0 1 1.92-.62c.71.12 1.26.75 2 .87s1.21-.16 1.78 0c.95.23 1.06 1.13 1.53 1.85a4.79 4.79 0 0 0 2 1.45c1.36.6 3.13.8 2.65 2.8-.17.69-.35 1.31-.48 1.94a12 12 0 0 1 .59 5.69 11.75 11.75 0 0 1-5.27 8.27z" style="fill:#0065ff"/><g style="opacity:.5"><path d="M177.89 249.54a.33.33 0 0 1-.24-.16l-.92-1.53a.39.39 0 0 1 .1-.52.35.35 0 0 1 .49.11l.92 1.52a.4.4 0 0 1-.11.52.35.35 0 0 1-.24.06zM179.36 245.25h-.07a8.63 8.63 0 0 1-2.2-1.17.39.39 0 0 1-.09-.52.34.34 0 0 1 .49-.1 8 8 0 0 0 2 1.08.39.39 0 0 1 .21.48.36.36 0 0 1-.34.23zM182 242.89a.31.31 0 0 1-.18-.09.37.37 0 0 1 0-.52l1.57-1.89a.33.33 0 0 1 .49 0 .39.39 0 0 1 0 .53l-1.57 1.89a.32.32 0 0 1-.31.08zM180.19 241.84a.35.35 0 0 1-.29-.26l-.38-1.31a.38.38 0 0 1 .23-.47.34.34 0 0 1 .44.24l.38 1.31a.38.38 0 0 1-.23.47.27.27 0 0 1-.15.02zM185.58 237.9a3.6 3.6 0 0 1-1.67-.68.37.37 0 0 1-.08-.51.33.33 0 0 1 .48-.11 3 3 0 0 0 2.07.57.34.34 0 0 1 .37.34.37.37 0 0 1-.32.4 3.45 3.45 0 0 1-.85-.01zM187.52 236.17h-.07a.37.37 0 0 1-.21-.47 12.78 12.78 0 0 1 .7-1.71.34.34 0 0 1 .47-.16.38.38 0 0 1 .15.5 11.83 11.83 0 0 0-.66 1.61.36.36 0 0 1-.38.23zM191.88 237.31a.32.32 0 0 1-.24-.15 8.2 8.2 0 0 0-.77-1 .39.39 0 0 1 0-.53.34.34 0 0 1 .5 0 9.67 9.67 0 0 1 .83 1.08.39.39 0 0 1-.08.52.35.35 0 0 1-.24.08zM195.28 235.17a.29.29 0 0 1-.13 0 3.54 3.54 0 0 1-1.51-2.08.39.39 0 0 1 .24-.47.34.34 0 0 1 .43.25 2.92 2.92 0 0 0 1.2 1.66.38.38 0 0 1 .12.51.36.36 0 0 1-.35.13zM198 236.39a.39.39 0 0 1-.27-.2.41.41 0 0 1 .16-.51 4.05 4.05 0 0 0 1.4-1.24.35.35 0 0 1 .5-.07.38.38 0 0 1 .05.52 4.88 4.88 0 0 1-1.64 1.46.34.34 0 0 1-.2.04zM203.91 236.86a.29.29 0 0 1-.22-.13 5.55 5.55 0 0 1-.85-1.66.39.39 0 0 1 .21-.48.34.34 0 0 1 .45.23 5.17 5.17 0 0 0 .74 1.44.39.39 0 0 1-.06.52.31.31 0 0 1-.27.08zM206 240.25a.35.35 0 0 1-.26-.2.4.4 0 0 1 .15-.51 8.55 8.55 0 0 0 1.28-.88.33.33 0 0 1 .49.06.39.39 0 0 1-.06.52 8.61 8.61 0 0 1-1.39 1 .38.38 0 0 1-.21.01zM208.74 244a.3.3 0 0 1-.17-.08l-1.67-1.38a.35.35 0 0 1-.37-.32.44.44 0 0 1 .19-.41.43.43 0 0 1 .51 0l1.77 1.47a.38.38 0 0 1 .06.52.35.35 0 0 1-.32.2zm-2-1.55zM209.58 248a.34.34 0 0 1-.26-.18.41.41 0 0 1 .14-.52 5.46 5.46 0 0 0 1.42-1.25.34.34 0 0 1 .5-.05.4.4 0 0 1 0 .53 6.21 6.21 0 0 1-1.61 1.42.3.3 0 0 1-.19.05zM207.66 251.18a.33.33 0 0 1-.23-.14 6.47 6.47 0 0 1-.88-1.64.39.39 0 0 1 .2-.49.34.34 0 0 1 .45.21 6.6 6.6 0 0 0 .78 1.46.39.39 0 0 1-.06.52.33.33 0 0 1-.26.08zM210.24 255.59a.31.31 0 0 1-.2-.11.39.39 0 0 1 0-.53l.79-.83a.34.34 0 0 1 .5 0 .39.39 0 0 1 0 .53l-.79.82a.37.37 0 0 1-.3.12zM208.34 258.16h-.09a2.77 2.77 0 0 1-1.5-2.09.39.39 0 0 1 .29-.44.35.35 0 0 1 .4.31 2.07 2.07 0 0 0 1.1 1.54.37.37 0 0 1 .17.49.35.35 0 0 1-.37.19zM207.33 263.16a.38.38 0 0 1-.26-.19.39.39 0 0 1 .14-.51l1.79-1.06a.34.34 0 0 1 .48.14.39.39 0 0 1-.14.51l-1.75 1.06a.36.36 0 0 1-.26.05zM203.53 264.33a.38.38 0 0 1-.3-.38 16.74 16.74 0 0 1 .27-2.35.36.36 0 0 1 .41-.31.38.38 0 0 1 .28.44 15.37 15.37 0 0 0-.26 2.24.36.36 0 0 1-.36.36zM202.36 267.1a1 1 0 0 1-.9-.65.38.38 0 0 1 .19-.49.34.34 0 0 1 .46.21c.06.15.34.22.77.19l1-.08a.35.35 0 0 1 .37.35.38.38 0 0 1-.33.4l-1 .07a2.62 2.62 0 0 1-.56 0zM199.84 269.39a.39.39 0 0 1-.15-.06l-.66-.49a5.49 5.49 0 0 1-.52-.44 4.61 4.61 0 0 1-.89-1.71.4.4 0 0 1 .21-.49.35.35 0 0 1 .45.22 3.83 3.83 0 0 0 .72 1.44 3.73 3.73 0 0 0 .43.36l.67.49a.39.39 0 0 1 .07.52.32.32 0 0 1-.33.16zM194.09 272.31a.36.36 0 0 1-.28-.43c.16-1 .28-2 .35-3a.37.37 0 0 1 .37-.36.35.35 0 0 1 .32.4c-.07 1-.19 2.09-.35 3.11a.38.38 0 0 1-.41.28zM189.49 271a.38.38 0 0 1-.21-.12.4.4 0 0 1 0-.53l1.94-1.86a.33.33 0 0 1 .49 0 .39.39 0 0 1 0 .53l-1.93 1.86a.36.36 0 0 1-.29.12zM188.49 267.37a1.88 1.88 0 0 1-.84-.29c-.08-.05-.16-.12-.25-.19s-.27-.23-.32-.21a.33.33 0 0 1-.45-.22.39.39 0 0 1 .21-.48 1 1 0 0 1 1 .32c.06.05.12.11.18.15a1.75 1.75 0 0 0 .73.19.37.37 0 0 1 .3.42.37.37 0 0 1-.39.33zM185.32 269.31a3.34 3.34 0 0 0-.83-.13.36.36 0 0 1-.33-.39.35.35 0 0 1 .36-.36 3.73 3.73 0 0 1 1 .16.37.37 0 0 1 .23.47.35.35 0 0 1-.43.25zM183 265.69h-.07a3.77 3.77 0 0 1-1.37-1.1 4.38 4.38 0 0 0-.77-.73.39.39 0 0 1-.09-.52.35.35 0 0 1 .49-.11 5.72 5.72 0 0 1 .87.83 3.19 3.19 0 0 0 1.12.92.38.38 0 0 1 .2.48.36.36 0 0 1-.38.23zM179.12 261.24a.33.33 0 0 1-.21-.12.4.4 0 0 1 0-.53l1.31-1.34a.33.33 0 0 1 .49 0 .39.39 0 0 1 0 .53l-1.31 1.34a.34.34 0 0 1-.28.12zM177.7 257.64a3.05 3.05 0 0 1-1.77-1.08.4.4 0 0 1 0-.53.34.34 0 0 1 .5 0 2.29 2.29 0 0 0 1.36.84.37.37 0 0 1 .28.44.36.36 0 0 1-.37.33zM179.86 255.76a.38.38 0 0 1-.17-.08.39.39 0 0 1-.06-.52 6.75 6.75 0 0 0 .9-1.7.35.35 0 0 1 .45-.22.38.38 0 0 1 .2.48 7.77 7.77 0 0 1-1 1.89.35.35 0 0 1-.32.15zM178 253a5.64 5.64 0 0 1-1.91-.62.38.38 0 0 1-.15-.5.35.35 0 0 1 .47-.17 5.16 5.16 0 0 0 1.72.55.37.37 0 0 1-.1.74z" style="fill:#fff"/></g><path d="M284.81 240.53s1.55 32.39 7.29 54.75c0 0-58.92 15.57-77.11 1.29 0 0-4.35-31.43 12-59.91z" style="fill:#0065ff"/><path d="M292.11 295.27s-58.92 15.58-77.12 1.29c0 0-4.35-31.43 12-59.9l29.87 2 28 1.87s.36 7.4 1.35 17.56c1.05 11.09 2.9 25.5 5.9 37.18z" style="fill:#fff;opacity:.5"/><path d="M286.17 258.08c-13.91 9.71-22.61 2.11-22.61 2.11s-5.48 4.13-7.65-10.64c-.63-4.31-1.65-7.65.93-10.9l28 1.87s.34 7.4 1.33 17.56z" style="opacity:.1"/><path d="M213.84 211.38a35.26 35.26 0 0 0 4.82 15.08c6.19 10.31 18.1 15.09 29.76 14.81a41.35 41.35 0 0 0 25.72-9.4A42.05 42.05 0 0 0 285 216.45a62 62 0 0 0 4.69-18.64 52.29 52.29 0 0 0 .15-6.59 29.67 29.67 0 0 0-12.94-23.54 43.75 43.75 0 0 0-28.89-7 28.9 28.9 0 0 0-4.95.92 34.62 34.62 0 0 0-20.29 14.58c-7.25 10.57-9.92 24.45-8.93 35.2z" style="fill:#e4897b"/><path d="M248.91 193.69a1.39 1.39 0 0 1-.21-.68 1.17 1.17 0 0 1 1.3-1 11.34 11.34 0 0 1 8.84 5.72 1.15 1.15 0 0 1-.52 1.55 1.23 1.23 0 0 1-1.55-.52 9 9 0 0 0-7.14-4.42 1.29 1.29 0 0 1-.72-.65zM222.64 191.93a1.42 1.42 0 0 1-.57-.43 1.18 1.18 0 0 1 .45-1.58 11.38 11.38 0 0 1 10.53-.58 1.15 1.15 0 0 1 .48 1.56 1.22 1.22 0 0 1-1.56.49 9 9 0 0 0-8.37.63 1.24 1.24 0 0 1-.96-.09z" style="fill:#263238"/><path d="m233.53 210.71-6.26 3.65s1.16 2.5 6.49 3.82z" style="fill:#de5753"/><path d="M243 161.64a34.62 34.62 0 0 0-20.29 14.58c13.14-6.06 47.16-3.74 45.8 13.92-1.22 15.89 4.8 27.91 16.43 26.31a62 62 0 0 0 4.69-18.64 52.29 52.29 0 0 0 .15-6.59 29.67 29.67 0 0 0-12.94-23.54 43.75 43.75 0 0 0-28.89-7 28.9 28.9 0 0 0-4.95.96zM218.35 179.59c.14 0 .27-.24.43-.59-.16.2-.3.39-.43.59z" style="opacity:.1"/><path d="M275.19 209.47s6.64-11.74 12.57-7.17 2.43 25-7 24-10.57-10.68-5.57-16.83zM251.48 165.77a20 20 0 0 0-10.12-1.06s4.18-3.14 11.69-1.58c8.21 1.71 9.37 6.31 9.37 6.31a13.31 13.31 0 0 1-4.91 1.09 38.21 38.21 0 0 1-4.26-.09c1.11 1.78 4.21 2.85 4.21 2.85-4.12 2.31-10.7 1.49-10.7 1.49 2.87 3.34 8 3.82 8 3.82-10.9 2.42-15.89-2.06-15.89-2.06 1.87 5.31 9.08 6.09 9.08 6.09s-13.93 2.43-15.36-8.82c-.93-7.4 9.81-9.15 18.89-8.04z" style="fill:#e4897b"/><path d="M251.48 165.77a20 20 0 0 0-10.12-1.06s4.18-3.14 11.69-1.58c8.21 1.71 9.37 6.31 9.37 6.31a13.31 13.31 0 0 1-4.91 1.09 38.21 38.21 0 0 1-4.26-.09c1.11 1.78 4.21 2.85 4.21 2.85-4.12 2.31-10.7 1.49-10.7 1.49 2.87 3.34 8 3.82 8 3.82-10.9 2.42-15.89-2.06-15.89-2.06 1.87 5.31 9.08 6.09 9.08 6.09s-13.93 2.43-15.36-8.82c-.93-7.4 9.81-9.15 18.89-8.04z" style="opacity:.4"/><path d="M253.94 207.49c0 1.6-1.09 2.89-2.37 2.86a3 3 0 1 1 2.37-2.86zM229.58 205.49a2.38 2.38 0 1 1-2.27-2.94 2.66 2.66 0 0 1 2.27 2.94zM254.7 223.49c-1 4.33-4.35 9.4-14 9.93 0 0-.19-.77-.58-1.92-.92-2.7-3-7.45-6.44-8.62 0 0 1.29.05 3.38-.1 1.31-.1 2.92-.28 4.72-.6a44.7 44.7 0 0 0 4.7-1.13 34.49 34.49 0 0 0 4.67-1.78 30.9 30.9 0 0 0 3.81-2.08 16.35 16.35 0 0 1-.26 6.3z" style="fill:#263238"/><path d="M254.7 223.49c-1 4.33-4.35 9.4-14 9.93 0 0-.19-.77-.58-1.92a25.22 25.22 0 0 1 14.58-8.01z" style="fill:#de5753"/><path d="M283.89 251.06c-9 8.22-20.31 14.79-32.72 15.9-11.4.6-22-1.47-32.82-4.63a5.28 5.28 0 0 1 1.12-10.3c5.06-.58 10.22-1 15.18-1.44s10.54-.9 15.2-2.27a46.51 46.51 0 0 0 9.28-4.86c3.75-2.44 7.54-5.38 11.08-8.18 10.71-7.81 22.88 6.32 13.68 15.78z" style="fill:#dc897c"/><path d="m255.91 242.64 20.93 19.56s19.37-12 8.41-26.28-29.34 6.72-29.34 6.72z" style="fill:#0065ff"/><path d="m255.91 242.64 20.93 19.56s19.37-12 8.41-26.28-29.34 6.72-29.34 6.72z" style="fill:#fff;opacity:.5"/><path d="M224.21 256.29a9.38 9.38 0 0 1 .61 4.5l-.19 1.93c-7.09 2.19-16.37-.67-16.37-.67l-2.72-.52a4.33 4.33 0 0 1-3.58-5l1-5.43a5 5 0 0 1 3.82-3.87l4.33-1a5.08 5.08 0 0 1 1.82-.09 5.14 5.14 0 0 1 2.8 1.25l5.9 5.17a9.53 9.53 0 0 1 2.58 3.73z" style="fill:#e4897b"/></g></svg>