<svg xmlns="http://www.w3.org/2000/svg" viewBox="0 0 500 500"><path transform="rotate(180 419.65 381.97)" style="fill:#ebebeb" d="M402.07 376.37h35.16v11.19h-35.16z"/><path transform="rotate(180 378.76 145.245)" style="fill:#ebebeb" d="M361.18 139.65h35.16v11.19h-35.16z"/><path d="M421.68 401.67c5.84-.09 20.81-.34 26.45-.41h8.71l-.46.45v-11.19l.5.5c-5.84 0-20.73-.07-26.37-.15l-8.79-.11.24-.24-.24 11.19zm0 0-.23-11.19v-.23h.24c4.39-.06 13.2-.16 17.58-.2l17.58-.07h.5v12.15H448.03c-5.6-.06-20.5-.32-26.29-.42zM184.55 316.71c5.84-.1 20.81-.35 26.44-.41h8.71l-.45.45-.05-11.19.5.5c-5.84 0-20.72-.07-26.36-.15l-8.79-.11.23-.24-.23 11.19zm0 0-.24-11.19v-.23h.25c4.38-.06 13.19-.16 17.57-.2l17.57-.09h.5v12.15h-9.32c-5.61-.07-20.51-.32-26.29-.42zM204.16 330.82c5.84-.1 20.81-.35 26.44-.41h8.72l-.46.45v-11.19l.5.5c-5.84 0-20.73-.07-26.37-.15l-8.79-.11.24-.24-.24 11.19zm0 0-.24-11.19v-.23h.24c4.38-.06 13.19-.16 17.58-.2l17.58-.07h.5v12.15H230.5c-5.6-.07-20.51-.32-26.29-.42z" style="fill:#ebebeb"/><path transform="rotate(180 241.27 311.12)" style="fill:#ebebeb" d="M223.69 305.52h35.16v11.19h-35.16z"/><path transform="rotate(180 60.74 396.08)" style="fill:#ebebeb" d="M43.16 390.48h35.16v11.19H43.16z"/><path transform="rotate(180 80.35 50.53)" style="fill:#ebebeb" d="M62.77 44.93h35.16v11.19H62.77z"/><path d="M43.16 70.23c5.84-.1 20.81-.35 26.45-.41h8.71l-.46.45V59.08l.5.5c-5.84 0-20.73-.07-26.37-.15l-8.79-.11.2-.32-.24 11.19zm0 0L42.92 59v-.23h.24c4.39-.06 13.19-.16 17.58-.2l17.58-.07h.5v12.15H69.5c-5.6-.07-20.51-.32-26.29-.42zM402.07 56.12c5.84-.1 20.81-.34 26.45-.41h8.71l-.46.45V44.97l.5.5-17.58-.07c-4.38 0-13.2-.13-17.58-.19l.24-.24-.24 11.19zm0 0-.24-11.19v-.23h.24c4.39-.06 13.2-.16 17.58-.2l17.58-.07h.5v.5l-.05 11.19v.46H428.36c-5.6-.07-20.5-.32-26.29-.42z" style="fill:#ebebeb"/><circle cx="97.31" cy="114.4" r="43.09" transform="rotate(-16.66 97.277 114.386)" style="fill:#ebebeb"/><circle cx="99.28" cy="115.36" r="41.11" transform="rotate(-61.57 99.272 115.363)" style="fill:#dbdbdb"/><circle cx="99.28" cy="115.36" r="38.52" transform="rotate(-18.53 99.277 115.345)" style="fill:#fff"/><path d="M136.92 107.19c-17.54 10.62-46.36 28.06-62.47 37.61a38.56 38.56 0 0 1-10.53-14.15l53.29-49.38a38.53 38.53 0 0 1 19.71 25.92zM137.77 116.71a38.19 38.19 0 0 1-2.55 12.51l-48 22.72a38.31 38.31 0 0 1-6.06-2.61c14.47-8.33 40.98-23.64 56.61-32.62z" style="fill:#ebebeb;opacity:.5"/><path style="fill:#c7c7c7" d="M98.91 79.64h.74v5.84h-.74z"/><path transform="rotate(-30 82.864 86.943)" style="fill:#c7c7c7" d="M82.51 84.04h.75v5.84h-.75z"/><path transform="rotate(-60 70.864 98.96)" style="fill:#c7c7c7" d="M70.5 96.04h.74v5.84h-.74z"/><path style="fill:#c7c7c7" d="M63.56 114.99h5.84v.74h-5.84z"/><path transform="rotate(-30.01 70.856 131.738)" style="fill:#c7c7c7" d="M67.95 131.39h5.84v.74h-5.84z"/><path transform="rotate(-60.04 82.882 143.773)" style="fill:#c7c7c7" d="M79.96 143.4h5.84v.74h-5.84z"/><path style="fill:#c7c7c7" d="M98.91 145.24h.74v5.84h-.74z"/><path transform="rotate(-30 115.676 143.775)" style="fill:#c7c7c7" d="M115.31 140.85h.74v5.84h-.74z"/><path transform="rotate(-59.99 127.697 131.764)" style="fill:#c7c7c7" d="M127.31 128.84h.74v5.84h-.74z"/><path style="fill:#c7c7c7" d="M129.16 114.99H135v.74h-5.84z"/><path transform="rotate(-30.01 127.705 98.97)" style="fill:#c7c7c7" d="M124.77 98.59h5.84v.74h-5.84z"/><path transform="rotate(-60.03 115.67 86.954)" style="fill:#c7c7c7" d="M112.76 86.58h5.84v.74h-5.84z"/><path style="fill:#c7c7c7" d="m99.84 82.28 1.27 35.68-3.66-.04 1.4-35.65.99.01z"/><path style="fill:#a6a6a6" d="m122.06 102.92-24 15.32-1.75-3.21 25.28-12.98.47.87z"/><path d="M100.53 115.36a1.25 1.25 0 1 1-1.25-1.25 1.25 1.25 0 0 1 1.25 1.25z" style="fill:#c7c7c7"/><g><path d="M350.23 112.57c2.79.3 14.87-1.36 23.18 9.48 7.86 10.26 11.21 41.89 13 48.75s10.86 7.72 13.16 15.69c2 6.86-3 9.5-3.39 14.57-.32 3.93 3.75 9.73.29 15.61-3.14 5.34-8.89 4.35-12.31 6.07s-5.41 9.78-11.77 12.07-12.13-3.42-15.53-3.32-7.2 10.61-18.3 9.93-14.5-10-19.11-11.74-16 1.68-21.4-3.93-6.43-13.22-8.85-16-7.34-2.21-10.42-8.65 2.89-10.69 3.62-16.35c.51-3.94-3.05-7.48-.73-13.53 3.21-8.33 13.34-6.78 17-15.33 2.88-6.71 8.52-35.74 25.83-43.22 11.96-5.15 25.73-.1 25.73-.1z" style="fill:#263238"/><path d="M386 169.15a9.93 9.93 0 0 0 3 3.65l3.68 3a30.24 30.24 0 0 1 6.52 6.61 9.58 9.58 0 0 1 1.24 8.39 14.59 14.59 0 0 1-2.23 3.9 16.78 16.78 0 0 0-2.65 4.26 8.12 8.12 0 0 0 .56 5.2c.54 1.53 1.15 3 1.61 4.45 1 2.91 1.24 6-.11 8.69a6.44 6.44 0 0 1-3 3 11.65 11.65 0 0 1-4.4 1.05c-1.55.15-3.14.13-4.73.19s-3.31.16-4.6 1.14a8.47 8.47 0 0 1 4.59-.66c1.58.08 3.17.23 4.78.22a12.67 12.67 0 0 0 4.85-.9 7.81 7.81 0 0 0 3.72-3.44c1.8-3 1.39-6.77.45-9.81-.46-1.57-1.06-3.07-1.55-4.53s-.89-2.91-.48-4.08c.9-2.55 3.71-4.87 4.72-8.18a10.67 10.67 0 0 0-1.65-9.71 30.25 30.25 0 0 0-7.14-6.53l-3.91-2.71a10.78 10.78 0 0 1-3.27-3.2zM308.69 129.32c-2.92 4.93-4.68 10.4-6.95 15.57-1.14 2.59-2.18 5.22-3.5 7.68A18.46 18.46 0 0 1 296 156a2.72 2.72 0 0 1-.64.63 3 3 0 0 1-.75.52c-.59.33-1.22.62-1.85.91a79.72 79.72 0 0 0-7.72 3.79 14.5 14.5 0 0 0-6.11 6.38 9.09 9.09 0 0 0-.8 4.46 11.57 11.57 0 0 0 1.39 4.2c1.38 2.5 2.68 5 2.82 7.9.29-2.89-.92-5.7-2-8.27a10.8 10.8 0 0 1-1.05-3.91 7.69 7.69 0 0 1 .91-3.79 14.15 14.15 0 0 1 5.69-5.55 80.06 80.06 0 0 1 7.64-3.56c.66-.32 1.31-.64 2-1a6.39 6.39 0 0 0 1.83-1.57 20.26 20.26 0 0 0 2.36-3.78 69.32 69.32 0 0 0 3.28-7.96l2.77-8.07a72.74 72.74 0 0 1 2.92-8.01zM286.43 207.9c1.25 1.61 1.45 3.73 1.95 5.67s.94 4 1.51 6a30.12 30.12 0 0 0 2.26 5.81 13.41 13.41 0 0 0 4.16 4.95c3.93 2.4 8.52 2 12.48 1.2 2-.42 4-.94 6-1.3a12.51 12.51 0 0 1 6-.1 11.76 11.76 0 0 0-6.08-.79c-2.06.2-4.07.57-6.07.81-3.92.5-8.11.65-11.25-1.34a12.15 12.15 0 0 1-3.66-4.25 38 38 0 0 1-2.44-5.43c-.71-1.88-1.33-3.82-2-5.75-.34-1-.7-1.93-1.1-2.88a5.92 5.92 0 0 0-1.76-2.6z" style="fill:#263238"/><path d="M407.36 346.74s-24 88.15-29.77 101.16h-93c16.07-42 33.06-97.07 33.55-100.89v-.27z" style="fill:#37474f"/><path d="M394.32 358.47c-.58 7.15-26.61 83.28-28.8 89.43h-1.34s28.27-84.21 29.79-89.43c.03-.22.38-.22.35 0z" style="fill:#263238"/><path d="m331 346.73 12 79.14.43 2.69 1.06 7.15.08.51.29 1.91 1.47 9.74h31.24c5.78-13 29.77-101.17 29.77-101.17z" style="fill:#263238"/><path d="M454 447.9h-88c0-.38-.05-.67-.06-.92s-.06-.6-.06-.6c-.49-.27-1-.54-1.48-.8-5.18-2.82-9.72-5-13.46-6.68-.64-.28-1.25-.55-1.84-.83-1.7-.73-3.22-1.35-4.48-1.84-3.24-1.29-5-1.86-5-1.86-.11-.27-.2-.53-.3-.8-12.76-32.47-20.44-81.95-21.16-86.56v-.35h125.65c7.48 23.41 22.49 66.45 10.19 101.24z" style="fill:#37474f"/><path d="M335.06 432.05c10.66 3.67 20.95 8.88 30.79 14.34a.34.34 0 0 1-.28.63c-10.38-4.45-21-8.71-31.07-13.73a.68.68 0 0 1 .56-1.24zM331.76 360.86c0-.36.66-.44.66-.05a343.63 343.63 0 0 0 1.74 34.66c.48 5.35 4.78 34.88 14 32.73 1.55-.37 2.35-1.89 2.59-4.23.29-2.81-.77-6.26-1.23-9.06-1-6.18-1.86-12.38-2.39-18.63a169.21 169.21 0 0 1 .38-34.93.3.3 0 0 1 .6 0c0 16.14.41 32.24 2.82 48.23 1.16 7.68 5 19.24-3 20.43s-13.47-18.17-14.47-23.47c-2.76-14.76-2.87-30.72-1.7-45.68z" style="fill:#263238"/><path d="M348 429a50.67 50.67 0 0 1 2.08 6.12 13.85 13.85 0 0 1 .87 5 .36.36 0 0 1-.64.14c-1.09-1.38-1.55-3.26-2.16-4.9-.7-1.89-1.45-3.77-2.1-5.68A1 1 0 0 1 348 429zM389.89 370.52a16.33 16.33 0 0 1 .39-3.83.2.2 0 0 1 .38 0 15.24 15.24 0 0 1 .43 3.31c.13 1.27.3 2.54.43 3.81a57.32 57.32 0 0 0 1.36 7.71 27.42 27.42 0 0 0 7.12 12.73 37 37 0 0 0 12 7.88c5 2.11 10.22 2.89 15.36 4.4a.2.2 0 0 1-.06.38 44.2 44.2 0 0 1-16.63-3.27 35.45 35.45 0 0 1-12.48-8 27.91 27.91 0 0 1-7.28-13.08 39.54 39.54 0 0 1-1-7.74 34.9 34.9 0 0 1-.02-4.3zM441.67 447.9c5.86-24.89 3.79-52.31-1.36-77.18-1.12-5.7-2.77-11.9-4.13-17.53 1.31 3.79 2.65 7.58 3.82 11.42 7.52 26 10.5 57.3 1.67 83.29z" style="fill:#263238"/><path d="M354.46 230.59c-15.76 28.36-45.88 80.18-67 85.63-20.25 5.24-61.3-28-95.24-48.6-6.75-4.1 37.21-46.7 44.19-42 18.24 12.4 39.84 32.33 44.66 31.11 3.94-1 32.72-25.73 51.12-40 29.32-22.64 33.37-6.09 22.27 13.86z" style="fill:#ad6359"/><path d="M192.23 267.62c-5.83-3.6-31.1-22.43-37-29.24s-21.23-27.65-16.5-32.67 9.77.72 9.77.72-5.13-9.82.12-14.44 12.76 4.57 12.76 4.57-4.53-10.48 1-14.71 11.62 6.27 11.62 6.27-4.59-9.39 1.47-10.94c7.28-1.87 13.78 16.4 20.82 23.43 1.6 1.6 34.68 30.09 34.68 30.09z" style="fill:#ad6359"/><path d="M173.45 187.23c4.81 13.42 9.24 18.46 20.3 27.1a.22.22 0 0 1-.23.37c-11.6-7.48-18.06-13-20.73-27.27-.13-.7.43-.84.66-.2zM161 195.49c6.22 13.5 11 19 21.89 28.9.16.14-.06.42-.23.29-11.52-8.82-17.85-14.47-22.29-28.77-.19-.65.36-1.04.63-.42zM149.07 206.92c7 12.64 11.92 18.9 23.75 27.15a.27.27 0 0 1-.28.45c-12.88-7.24-19.12-15-23.83-27.35-.32-.84-.08-1.04.36-.25z" style="fill:#263238"/><path style="fill:#455a64" d="m108.28 150.46 59.03 3.92 47.05-22.77 40.72 67.77-47.64 17.5.7 1.83-9.95 2.41-.86-1.59-52.58-2.67-36.47-66.4z"/><path d="M200.49 217.61s17.32-8.43 32.18-13c7-2.16 15.61-5.81 15.61-5.81l.06-4.58s-34.34 6.45-47.85 23.39z" style="fill:#ebebeb"/><path d="M166.42 152.68s6.2-8.63 20.58-12.88c6.54-1.94 16.79-2.25 24.93-8.54l36.41 63s-30.9 7.24-47.85 23.39z" style="fill:#fff"/><path d="M166.42 152.68c5.42-6.65 13.34-10.91 21.5-13.23 4.15-1.08 8.39-1.66 12.48-2.84A33.27 33.27 0 0 0 212 131c.1 0 36.49 63 36.59 63.05l.16.29-.32.08c-4.33 1.08-8.61 2.41-12.84 3.88-12.57 4.49-25 10.29-34.94 19.4l-.18.17c-.14 0-33.88-65.13-34-65.23zm0 0c-.12 0 34.93 65.41 34 64.8a75.1 75.1 0 0 1 10.7-8.17 126.77 126.77 0 0 1 24.34-11.41c4.23-1.49 8.51-2.84 12.88-3.92l-.16.36c.08 0-36.88-63.43-36.11-63-6.89 5.4-15.8 6.38-24.05 8.26-8.16 2.25-16.09 6.44-21.55 13z" style="fill:#ebebeb"/><path d="m200.49 217.61-34.07-64.93s-33.18-10-45-7.91L110 149.21l36.42 65.52z" style="fill:#fff"/><path d="M200.49 217.61s-34.49-65.19-34.12-64.76a237.67 237.67 0 0 0-33.53-7.58 44.19 44.19 0 0 0-11.37-.27c.19-.1-11.43 4.48-11.4 4.44l.12-.35 36.34 65.57c-.66-.14 54.09 3 54 3zm0 0-54.18-2.73c-.2-.46-36.5-65.39-36.69-65.8l.27-.1 11.48-4.44a45 45 0 0 1 11.53.29 240.06 240.06 0 0 1 33.58 7.68c.24 0 33.86 65 34 65.1z" style="fill:#ebebeb"/><path d="m121.43 144.77 33.21 64.71s31.16 3.12 45.85 8.13l-54.09-2.88-36.4-65.52z" style="fill:#ebebeb"/><path d="M166.42 152.68q4.46 8 8.8 16.09l8.6 16.19 8.43 16.28q4.19 8.14 8.24 16.37-4.45-8-8.79-16.09l-8.6-16.19-8.43-16.27q-4.18-8.16-8.25-16.38z" style="fill:#dbdbdb"/><path d="M173.85 156.24a44.27 44.27 0 0 1 8.19-5.7 51 51 0 0 1 9.18-3.95c3.19-1 6.42-1.79 9.65-2.61 1.61-.41 3.22-.82 4.82-1.27a35.39 35.39 0 0 0 4.74-1.53 62.62 62.62 0 0 1-9.5 3.06c-3.21.86-6.43 1.71-9.58 2.74a51.1 51.1 0 0 0-9.19 3.79 54.43 54.43 0 0 0-8.31 5.47zM202.75 146.39c2.94-1.08 6-1.79 8.91-2.77a19.94 19.94 0 0 1-4.35 1.73 41.26 41.26 0 0 1-4.56 1.04zM175.08 158.68a37.62 37.62 0 0 1 5.34-4 51.56 51.56 0 0 1 5.87-3.25 67.58 67.58 0 0 1 12.76-4c-2.13.65-4.27 1.29-6.39 2a60.54 60.54 0 0 0-12.1 5.55 57.59 57.59 0 0 0-5.48 3.7zM176.31 161.12a44.27 44.27 0 0 1 8.19-5.7 51 51 0 0 1 9.18-3.95c3.19-1 6.42-1.79 9.65-2.61 1.61-.41 3.22-.82 4.82-1.27a35.39 35.39 0 0 0 4.74-1.53 62.62 62.62 0 0 1-9.5 3.06c-3.21.86-6.43 1.71-9.58 2.74a51.1 51.1 0 0 0-9.19 3.79 54.43 54.43 0 0 0-8.31 5.47zM177.54 163.56a44.27 44.27 0 0 1 8.19-5.7 51 51 0 0 1 9.18-4c3.19-1 6.42-1.79 9.65-2.61 1.61-.41 3.22-.82 4.82-1.27a35.39 35.39 0 0 0 4.74-1.53 62.86 62.86 0 0 1-9.49 3.06c-3.22.86-6.44 1.71-9.59 2.74a51.1 51.1 0 0 0-9.19 3.79 54.43 54.43 0 0 0-8.31 5.52zM192.71 157.77q2.78-1 5.58-2c1.86-.67 3.79-1.11 5.69-1.65l5.73-1.47a50.29 50.29 0 0 0 5.64-1.73 35.2 35.2 0 0 1-5.56 2c-1.89.56-3.81 1.05-5.71 1.56s-3.83 1-5.7 1.56-3.77 1.19-5.67 1.73zM178.77 166a32 32 0 0 1 5.52-4.24c1-.6 2-1.19 3.05-1.7a34.57 34.57 0 0 1 3.19-1.39 87.53 87.53 0 0 0-11.76 7.33zM180 168.45a43.85 43.85 0 0 1 8.19-5.71 51 51 0 0 1 9.18-4c3.19-1 6.42-1.79 9.65-2.61 1.61-.41 3.22-.82 4.82-1.27a36 36 0 0 0 4.75-1.53 63.35 63.35 0 0 1-9.5 3.06c-3.22.86-6.44 1.71-9.59 2.74a51.1 51.1 0 0 0-9.19 3.79 53.75 53.75 0 0 0-8.31 5.53zM182.46 173.33a43.85 43.85 0 0 1 8.19-5.71 50.09 50.09 0 0 1 9.19-3.94c3.18-1 6.41-1.8 9.64-2.62 1.61-.41 3.22-.82 4.82-1.27a36 36 0 0 0 4.75-1.53 63.35 63.35 0 0 1-9.5 3.06c-3.22.86-6.44 1.71-9.59 2.74a50.7 50.7 0 0 0-9.18 3.79 53.37 53.37 0 0 0-8.32 5.48zM201.75 166.11c1.68-.63 3.4-1.12 5.11-1.61s3.46-.91 5.22-1.22c-1.68.63-3.39 1.11-5.11 1.61s-3.45.9-5.22 1.22zM183.69 175.77a35.31 35.31 0 0 1 6.54-4.85c1.18-.67 2.37-1.33 3.61-1.89a36.4 36.4 0 0 1 3.79-1.5 79 79 0 0 0-7.2 3.73c-1.17.67-2.31 1.41-3.43 2.15s-2.24 1.52-3.31 2.36zM184.92 178.21a43.85 43.85 0 0 1 8.19-5.71 50.09 50.09 0 0 1 9.19-3.94c3.18-1 6.41-1.8 9.64-2.62 1.61-.41 3.22-.82 4.82-1.27a36 36 0 0 0 4.75-1.53 63.35 63.35 0 0 1-9.5 3.06c-3.22.86-6.44 1.71-9.59 2.74a50.7 50.7 0 0 0-9.18 3.79 53.37 53.37 0 0 0-8.32 5.48zM187.38 183.09a43.85 43.85 0 0 1 8.19-5.71 50.09 50.09 0 0 1 9.19-3.94c3.18-1 6.42-1.8 9.64-2.62 1.61-.41 3.22-.82 4.82-1.27A36 36 0 0 0 224 168a63.35 63.35 0 0 1-9.5 3.06c-3.22.87-6.44 1.71-9.59 2.74a50 50 0 0 0-9.18 3.8 52.6 52.6 0 0 0-8.35 5.49zM188.61 185.53a43.85 43.85 0 0 1 8.19-5.71 51.09 51.09 0 0 1 9.19-3.94c3.18-1 6.42-1.8 9.64-2.62 1.61-.41 3.22-.82 4.82-1.27a36 36 0 0 0 4.75-1.53 62.22 62.22 0 0 1-9.5 3.06c-3.22.87-6.44 1.71-9.59 2.74a50 50 0 0 0-9.18 3.8 52.6 52.6 0 0 0-8.32 5.47zM215.15 179.05c2.06-.72 4.17-1.27 6.26-1.86l3.14-.86c1-.31 2.08-.61 3.11-1a31.21 31.21 0 0 1-6.15 2.24c-2.1.56-4.22 1.08-6.36 1.48zM202 183.47c.87-.45 1.74-.89 2.63-1.3s1.81-.73 2.73-1.06a46 46 0 0 1 5.65-1.48c-1.83.68-3.69 1.23-5.52 1.86s-3.65 1.36-5.49 1.98zM191.07 190.41a23.49 23.49 0 0 1 3.6-3c.66-.42 1.31-.85 2-1.23a22.67 22.67 0 0 1 2.09-1.05c-2.58 1.77-5.15 3.46-7.69 5.28zM218 181.07c1.8-.64 3.64-1.13 5.46-1.66l2.73-.77c.91-.27 1.82-.53 2.72-.86a27 27 0 0 1-5.35 2c-1.85.51-3.7.97-5.56 1.29zM192.3 192.85a35.78 35.78 0 0 1 5.1-3.89 52.83 52.83 0 0 1 5.6-3.16 61.48 61.48 0 0 1 12.17-4c-2 .64-4.08 1.26-6.1 1.93a49.7 49.7 0 0 0-5.9 2.42 54.19 54.19 0 0 0-5.62 3 59.3 59.3 0 0 0-5.25 3.7zM193.53 195.29a43.85 43.85 0 0 1 8.19-5.71 51.09 51.09 0 0 1 9.19-3.94c3.18-1 6.42-1.8 9.64-2.62 1.61-.41 3.22-.82 4.82-1.27a36 36 0 0 0 4.75-1.53 62.22 62.22 0 0 1-9.5 3.06c-3.22.87-6.43 1.71-9.59 2.74a50.74 50.74 0 0 0-9.18 3.8 53.78 53.78 0 0 0-8.32 5.47zM208.7 189.49a82.65 82.65 0 0 1 11.3-3.63l5.73-1.47a51.11 51.11 0 0 0 5.65-1.73c-3.59 1.69-7.49 2.53-11.28 3.59l-5.71 1.52c-1.93.53-3.83 1.07-5.69 1.72zM194.76 197.73a32.06 32.06 0 0 1 5.31-4.11c1-.57 1.92-1.15 2.93-1.65a32.49 32.49 0 0 1 3.07-1.36 92.65 92.65 0 0 0-11.31 7.12zM196 200.17a43.85 43.85 0 0 1 8.19-5.71 51.09 51.09 0 0 1 9.19-3.94c3.18-1 6.42-1.8 9.64-2.62 1.61-.41 3.22-.82 4.83-1.27a36.35 36.35 0 0 0 4.74-1.53 62.22 62.22 0 0 1-9.5 3.06c-3.21.87-6.43 1.71-9.59 2.74a50.74 50.74 0 0 0-9.18 3.8 53.78 53.78 0 0 0-8.32 5.47zM197.22 202.61a36.62 36.62 0 0 1 4.85-3.74 53.88 53.88 0 0 1 5.32-3.06 35.37 35.37 0 0 1 5.72-2.2c1.94-.62 3.9-1.19 5.87-1.73q-2.88 1-5.78 2a35.52 35.52 0 0 0-5.64 2.31 52.22 52.22 0 0 0-5.34 2.93 57.56 57.56 0 0 0-5 3.49zM130.89 150.94c5.6.38 11.16 1.21 16.7 2.09q4.14.75 8.25 1.66c2.75.57 5.46 1.29 8.16 2.05-2.74-.61-5.47-1.23-8.22-1.79s-5.5-1.07-8.26-1.52-5.52-1-8.3-1.36-5.55-.79-8.33-1.13zM150.73 155.74c1.22.15 2.44.31 3.64.57l3.61.77c2.39.56 4.79 1.11 7.15 1.81-2.44-.37-4.84-.9-7.24-1.42s-4.77-1.16-7.16-1.73zM132 153.08c2.6.09 5.18.39 7.75.71s5.13.78 7.66 1.37c-2.59-.26-5.15-.64-7.72-1s-5.11-.66-7.69-1.08zM133.15 155.23c4.23.24 8.42.84 12.6 1.42s8.34 1.44 12.45 2.48c-4.18-.7-8.32-1.5-12.51-2.08s-8.35-1.24-12.54-1.82zM134.28 157.38c5.6.38 11.15 1.21 16.69 2.09q4.16.75 8.26 1.66c2.74.58 5.46 1.29 8.15 2.06-2.73-.62-5.46-1.24-8.21-1.8s-5.5-1.07-8.27-1.52-5.52-1-8.29-1.36-5.55-.78-8.33-1.13zM159.17 163.16c1.59.2 3.15.55 4.72.89s3.11.76 4.62 1.29c-1.6-.2-3.15-.56-4.72-.9s-3.1-.75-4.62-1.28zM135.41 159.53c3.47.17 6.92.6 10.35 1.08s6.86 1.11 10.24 1.92c-6.87-1.02-13.72-2.04-20.59-3zM161.62 167.5c1.56.19 3.09.53 4.62.87s3 .74 4.53 1.26c-1.57-.19-3.09-.54-4.62-.87s-3.04-.76-4.53-1.26zM152.5 165.8a32.64 32.64 0 0 1 3.69.47 29.77 29.77 0 0 1 3.62.86 32.36 32.36 0 0 1-3.69-.47 30.22 30.22 0 0 1-3.62-.86zM137.66 163.82c1.81.06 3.6.27 5.39.47s3.57.48 5.33.87c-1.81-.06-3.6-.27-5.38-.47s-3.56-.48-5.34-.87zM138.79 166c5.6.38 11.16 1.21 16.7 2.1q4.14.74 8.25 1.65c2.75.58 5.46 1.29 8.16 2.06-2.74-.61-5.47-1.24-8.21-1.8s-5.51-1.07-8.27-1.52-5.52-1-8.29-1.36-5.55-.81-8.34-1.13zM139.92 168.12c5.6.38 11.16 1.21 16.7 2.09q4.14.75 8.25 1.66c2.75.57 5.46 1.29 8.16 2.06-2.74-.62-5.47-1.24-8.22-1.8s-5.5-1.07-8.26-1.52-5.52-1-8.3-1.36-5.54-.78-8.33-1.13zM141.05 170.27c3.85.2 7.67.69 11.48 1.24s7.59 1.28 11.33 2.2c-3.8-.59-7.59-1.25-11.39-1.8s-7.61-1.11-11.42-1.64z" style="fill:#263238"/><path d="m145.58 175.35 12.62 25.25a252.41 252.41 0 0 1 29.8 5.23l-13.57-25.13s-21.3-5.27-28.85-5.35z" style="fill:#455a64"/><path d="M240.56 232.47S236 215.19 232.38 208s-27.12-28.8-32.08-24c-6.4 6.2 4.68 21.36 11.07 28.08 0 0-14.83 14.32-9.23 26.92s38.42-6.53 38.42-6.53z" style="fill:#ad6359"/><path d="M199.1 186.32c-1.76 9.87 7.2 18.14 12.92 25.12a.83.83 0 0 1-.31 1.32c-5.82 6.42-12.15 17.17-10.1 26.07a.21.21 0 0 1-.4.13c-3.5-9.25 1.87-20.32 8.69-26.94-6-7.07-14.61-15.76-10.89-25.72l.09.02z" style="fill:#263238"/><path d="m243 227-35.54 59.11S271 324.1 290 318.42s53.63-63.83 64.75-86.56 5-35-17.64-19.16S283.72 253.68 280 254s-37-27-37-27z" style="fill:#0065ff"/><path d="M333.81 268.75c-.13.2-.27.41-.4.63h-.72a3.25 3.25 0 0 1-3.24-3.24 2.62 2.62 0 0 0-2.61-2.61h-2v-.63h2a3.24 3.24 0 0 1 3.24 3.24 2.62 2.62 0 0 0 2.61 2.61zm3.61-31.45-1.35-1.3a2.61 2.61 0 0 1 0-3.69 3.24 3.24 0 0 0 0-4.58l-1.43-1.43-.45.44 1.43 1.43a2.61 2.61 0 0 1 0 3.69 3.24 3.24 0 0 0 0 4.59l1.35 1.35zm12.3-24.15a2.61 2.61 0 0 1 3.69 0 3.21 3.21 0 0 0 2.29.95 3.21 3.21 0 0 0 2.29-.95l1.43-1.43-.45-.45-1.43 1.43a2.59 2.59 0 0 1-1.84.77 2.59 2.59 0 0 1-1.84-.77 3.26 3.26 0 0 0-4.59 0l-1.35 1.36.45.44zm-36.84 71.13H311a2.61 2.61 0 0 1-2.61-2.61 3.25 3.25 0 0 0-3.24-3.24h-2v.63h2a2.61 2.61 0 0 1 2.6 2.61 3.25 3.25 0 0 0 3.25 3.24h1.91zM247 281.16h-1.91a2.61 2.61 0 0 1-2.61-2.6 3.25 3.25 0 0 0-3.24-3.25h-2v.69h2a2.61 2.61 0 0 1 2.6 2.61 3.25 3.25 0 0 0 3.25 3.24H247zm63.44-30.26-1.36-1.35a2.63 2.63 0 0 1 0-3.69 3.25 3.25 0 0 0 0-4.59l-1.42-1.42-.45.44 1.43 1.43a2.63 2.63 0 0 1 0 3.69 3.23 3.23 0 0 0 0 4.58l1.35 1.36zm-20.69 58.65-1.35-1.36a2.61 2.61 0 0 1 0-3.69 3.24 3.24 0 0 0 0-4.58l-1.4-1.43-.45.45 1.43 1.43a2.61 2.61 0 0 1 0 3.69 3.25 3.25 0 0 0 0 4.58l1.35 1.35zm-54-9.63-1.44-1.43-.44.45 1.43 1.42a2.8 2.8 0 0 1 .7 1.25l.68.34a3.25 3.25 0 0 0-.95-2.03zm24.59-40.5-1.34-1.35a2.61 2.61 0 0 1 0-3.69 3.24 3.24 0 0 0 0-4.58l-1.43-1.43-.45.45 1.43 1.43a2.6 2.6 0 0 1 0 3.68 3.26 3.26 0 0 0 0 4.59l1.35 1.35zm6.54 23.7a2.67 2.67 0 0 1 3.69 0 3.25 3.25 0 0 0 4.59 0l1.42-1.43-.44-.45-1.43 1.43a2.61 2.61 0 0 1-3.69 0 3.24 3.24 0 0 0-4.58 0l-1.38 1.33.45.44zm-46.41 3.71-1.47 1.43a2.6 2.6 0 0 1-3.68 0 3.25 3.25 0 0 0-2.3-.95 3.32 3.32 0 0 0-2.13.79l.6.34a2.68 2.68 0 0 1 3.38.27 3.24 3.24 0 0 0 4.58 0l1.43-1.43zm63.91-19.63a2.61 2.61 0 0 1 2.61-2.61 3.25 3.25 0 0 0 3.24-3.24v-1.91h-.64v1.91A2.61 2.61 0 0 1 287 264a3.25 3.25 0 0 0-3.25 3.24v2h.64zm-20.84 39.64v1.91a2.61 2.61 0 0 1-2.61 2.61 3.23 3.23 0 0 0-2 .7l.71.29a2.51 2.51 0 0 1 1.3-.35 3.25 3.25 0 0 0 3.24-3.25v-1.91zM239.8 235v1.92a2.61 2.61 0 0 1-2.61 2.61 3.21 3.21 0 0 0-2.29 1l-.8 1.33a3.24 3.24 0 0 0-.15.94v2h.63v-2a2.62 2.62 0 0 1 2.61-2.61 3.25 3.25 0 0 0 3.25-3.24V235z" style="fill:#fff"/><path d="M224.81 290.86c11.35-23.39 26.83-46.29 29.25-50.47.11-.19.42 0 .29.2-2.58 4-17.43 32-29.21 50.49-.14.22-.43.01-.33-.22z" style="fill:#263238"/><path d="M354.8 231.86c-11.13 22.73-45.7 80.87-64.77 86.55-5.84 1.75-15.85-.61-26.93-4.73 22.92-28.08 65.5-77.17 90.41-108.14 8.49-.02 8.94 10.69 1.29 26.32z" style="opacity:.1"/><path d="m318.05 346.66 1.82-35.28s-11-8.43-10.25-27.68c.57-14 30.45-71.28 32.92-73.78 9.93-10 29-9.51 35.6-3.42 33.46 31.06 49.79 77.64 65.67 140.16z" style="fill:#0065ff"/><path d="M410.62 302.09h-1.91a3.24 3.24 0 0 1-3.24-3.24 2.61 2.61 0 0 0-2.61-2.61h-2v-.63h2a3.24 3.24 0 0 1 3.24 3.24 2.61 2.61 0 0 0 2.61 2.61h1.91zm-76-33.35h-1.91a2.61 2.61 0 0 1-2.61-2.6 3.25 3.25 0 0 0-3.24-3.25h-2v.64h2a2.61 2.61 0 0 1 2.61 2.61 3.25 3.25 0 0 0 3.24 3.24h1.91zm48.3-8.74H381a2.61 2.61 0 0 1-2.61-2.61 3.25 3.25 0 0 0-3.24-3.24h-2v.63h2a2.61 2.61 0 0 1 2.6 2.61 3.25 3.25 0 0 0 3.25 3.21h1.91zm-24.36 51h-1.91a2.61 2.61 0 0 1-2.61-2.61 3.25 3.25 0 0 0-3.24-3.24h-2v.64h2a2.61 2.61 0 0 1 2.61 2.6 3.25 3.25 0 0 0 3.24 3.25h1.91zM318 346.63s.05.01 0 0zm68.39-26.05-1.35-1.36a2.6 2.6 0 0 1 0-3.68 3.25 3.25 0 0 0 0-4.59l-1.43-1.43-.45.45 1.43 1.43a2.61 2.61 0 0 1 0 3.69 3.25 3.25 0 0 0 0 4.58L386 321zm36.79 22.11-1.42-1.43-.45.45 1.43 1.42a2.63 2.63 0 0 1 .15 3.53h.78a3.23 3.23 0 0 0-.45-3.97zm-18-68.33-1.27-1.36a2.61 2.61 0 0 1 0-3.69 3.25 3.25 0 0 0 0-4.58l-1.43-1.43-.45.45 1.43 1.43a2.6 2.6 0 0 1 0 3.68 3.26 3.26 0 0 0 0 4.59l1.36 1.35zm-67.76-37.06-1.35-1.3a2.61 2.61 0 0 1 0-3.69 3.24 3.24 0 0 0 0-4.58l-1.43-1.43-.45.44 1.43 1.43a2.61 2.61 0 0 1 0 3.69 3.24 3.24 0 0 0 0 4.59l1.35 1.35zm41.19-6.25-1.35-1.36a2.6 2.6 0 0 1 0-3.68 3.25 3.25 0 0 0 0-4.59l-1.43-1.42-.45.45 1.43 1.43a2.61 2.61 0 0 1 0 3.69 3.25 3.25 0 0 0 0 4.58l1.36 1.36zm-45 69.14-1.35-1.36a2.6 2.6 0 0 1 0-3.68 3.25 3.25 0 0 0 0-4.59l-1.43-1.43-.45.45 1.43 1.43a2.61 2.61 0 0 1 0 3.69 3.25 3.25 0 0 0 0 4.58l1.35 1.36zM398 331.54a2.61 2.61 0 0 1 3.68 0 3.25 3.25 0 0 0 4.59 0l1.43-1.43-.45-.44-1.43 1.43a2.63 2.63 0 0 1-3.69 0 3.23 3.23 0 0 0-4.58 0l-1.36 1.35.45.45zm43.77 7.15-1.35 1.36.44.44 1.11-1.11zm-110.9-13.22a2.61 2.61 0 0 1 3.69 0 3.24 3.24 0 0 0 4.58 0l1.43-1.43-.45-.45-1.43 1.41a2.61 2.61 0 0 1-3.68 0 3.24 3.24 0 0 0-4.59 0l-1.35 1.35.45.45zM350.78 279a2.61 2.61 0 0 1 3.69 0 3.26 3.26 0 0 0 4.59 0l1.43-1.43-.45-.45-1.43 1.43a2.62 2.62 0 0 1-3.69 0 3.23 3.23 0 0 0-4.58 0l-1.34 1.34.45.45zm73.79 3.19a3.27 3.27 0 0 0-3.86.56l-1.33 1.35.44.44 1.35-1.33a2.56 2.56 0 0 1 3.68 0l.13.11c-.15-.39-.28-.77-.41-1.14zm-74.85-69a2.61 2.61 0 0 1 3.69 0 3.21 3.21 0 0 0 2.29.95 3.21 3.21 0 0 0 2.29-.95l1.43-1.43-.45-.45-1.43 1.43a2.59 2.59 0 0 1-1.84.77 2.59 2.59 0 0 1-1.84-.77 3.26 3.26 0 0 0-4.59 0l-1.35 1.36.45.44zm72.21 106.93a2.61 2.61 0 0 1 2.6-2.6 3.26 3.26 0 0 0 3.25-3.25v-1.91h-.64v1.91a2.61 2.61 0 0 1-2.61 2.61 3.25 3.25 0 0 0-3.24 3.24v2h.64zm-61.56 16.8a2.61 2.61 0 0 1 2.61-2.61 3.24 3.24 0 0 0 3.24-3.24v-1.92h-.63V331a2.61 2.61 0 0 1-2.61 2.61 3.24 3.24 0 0 0-3.24 3.24v2h.63zm15.05-46.19a2.61 2.61 0 0 1 2.61-2.6 3.25 3.25 0 0 0 3.24-3.25v-1.91h-.63v1.91a2.61 2.61 0 0 1-2.61 2.61 3.25 3.25 0 0 0-3.24 3.24v2h.63zm-59.6 13.94v1.91a3 3 0 0 1 0 .31c.17.25.34.48.5.69a3.32 3.32 0 0 0 .16-1v-1.91zm36.3-53.57a2.62 2.62 0 0 1 2.61-2.6 3.25 3.25 0 0 0 3.24-3.25v-1.95h-.63v1.91a2.61 2.61 0 0 1-2.61 2.61 3.25 3.25 0 0 0-3.24 3.24v2h.63zM311 284.28a2.57 2.57 0 0 1-1.36-.38v.7a3.32 3.32 0 0 0 1.38.31h1.91v-.63zm91-49v1.28a2.61 2.61 0 0 1-2.61 2.61 3.25 3.25 0 0 0-3.24 3.25v2h.63v-2a2.61 2.61 0 0 1 2.61-2.61 3.26 3.26 0 0 0 3.25-3.25v-.29c-.28-.37-.48-.7-.7-1.03z" style="fill:#fff"/><path d="M357.18 304.7a114.78 114.78 0 0 0-17.08.93c-2.81.41-5.58.94-8.35 1.53-1.39.3-2.77.54-4.16.78a18.21 18.21 0 0 1-4.42.35.1.1 0 0 0 0 .2 32.31 32.31 0 0 0 4.17.38 30.56 30.56 0 0 0 4.05-.32c2.85-.38 5.69-.9 8.54-1.31 5.74-.83 11.49-1.66 17.28-2.07.26-.02.24-.47-.03-.47zM370.61 311.22a123.77 123.77 0 0 0-13.95-2.2c-2.34-.22-4.68-.31-7-.34h-3.38c-1.13 0-2.47.21-3.71.21-.13 0-.15.2 0 .21 1.17 0 2.34.25 3.5.35l3.51.29c2.34.19 4.68.41 7 .59 4.69.35 9.36.74 14 1.25.25.05.27-.31.03-.36z" style="fill:#263238"/><path d="M368.46 209.5c-.15 2.6-8 19.41-19.54 20.87-3.75.47-8.43-18.4-8.43-18.4l-.6-1.44-8.37-20.22 21.94-20.17 3.21-2.72s1.93 5.68 4.25 12.78l.34 1c.14.4.28.77.39 1.15.36 1.06.73 2.14 1.07 3.22.26.82.52 1.62.77 2.5l.77 2.59c2.46 8.66 4.25 17.74 4.2 18.84z" style="fill:#ad6359"/><path d="M360.92 180.2a43.88 43.88 0 0 1-21 30.33l-8.37-20.22 21.94-20.17 3.21-2.72s1.9 5.68 4.22 12.78z" style="fill:#263238"/><path d="M295.63 159.37c.33 38.4 23.37 42.54 31.65 42.46 7.52-.07 33.11-1.27 36.75-39.51s-14.32-50.22-31.52-51-37.21 9.68-36.88 48.05z" style="fill:#ad6359"/><path d="M302.64 155.34c.89-.18 1.69-.49 2.55-.75a4.33 4.33 0 0 0 2.45-1.26 1.37 1.37 0 0 0-.13-1.66 3.4 3.4 0 0 0-3.4-.53 5 5 0 0 0-3 2 1.46 1.46 0 0 0 1.53 2.2zM330.17 157.4a23.06 23.06 0 0 1-2.63-.34 4.27 4.27 0 0 1-2.62-.86 1.37 1.37 0 0 1-.12-1.67 3.37 3.37 0 0 1 3.26-1.05 5.07 5.07 0 0 1 3.26 1.51 1.46 1.46 0 0 1-1.15 2.41zM324.91 163.38c0-.1.21.11.22.22.06 2.62.57 5.6 3 6.34.07 0 .07.15 0 .15-2.94-.25-3.58-4.22-3.22-6.71z" style="fill:#263238"/><path d="M327.09 160.53c4.19-.56 5 7.85 1.1 8.36s-4.6-7.89-1.1-8.36z" style="fill:#263238"/><path d="M328.79 160.81c.77.41 1.57 1.18 2.47 1.19s1.72-.95 2.31-1.86c.06-.1.14 0 .15.08.18 1.61-.29 3.32-2 3.72s-2.82-.95-3.37-2.53c-.1-.29.12-.76.44-.6zM309.3 165.21c0-.1-.18.15-.16.26.48 2.57.59 5.6-1.61 6.81-.07 0 0 .17 0 .14 2.83-.84 2.64-4.85 1.77-7.21z" style="fill:#263238"/><path d="M306.58 162.86c-4.2.32-3.25 8.71.65 8.41s2.88-8.68-.65-8.41z" style="fill:#263238"/><path d="M305 163.49c-.68.56-1.31 1.48-2.18 1.67s-1.88-.58-2.64-1.35c-.08-.08-.15 0-.14.12.16 1.61 1 3.19 2.72 3.23 1.59 0 2.56-1.51 2.78-3.17.03-.31-.28-.72-.54-.5zM328.06 183.56c-.45.75-.85 1.72-1.75 2a6.66 6.66 0 0 1-2.88.07.09.09 0 0 0-.08.16 3.52 3.52 0 0 0 3.57.54 2.76 2.76 0 0 0 1.41-2.75c0-.13-.2-.13-.27-.02zM314.82 175.87s.24 3.94.6 5.74c0 .17.48.17 1.1.08h.08a8.77 8.77 0 0 0 7.7-4.87c.09-.2-.18-.34-.32-.2a13.15 13.15 0 0 1-7.4 3.81c-.22-.47-.17-6.75-.46-6.72a16.06 16.06 0 0 0-3.92 1.75c-.72-8.19-.13-16.42-1-24.56a.25.25 0 0 0-.5 0c-1.23 8.58-.6 18-.07 26.49.08 1.03 3.53-1.07 4.19-1.52z" style="fill:#263238"/><path d="M317.13 180.78a10.12 10.12 0 0 0 4.47 2.46 4.56 4.56 0 0 0 2.74-.25c1.89-.83 1.65-2.64 1.05-4.13a10.71 10.71 0 0 0-1.25-2.23 13.05 13.05 0 0 1-7.01 4.15z" style="fill:#263238"/><path d="M321.6 183.24a4.56 4.56 0 0 0 2.74-.25c1.89-.83 1.65-2.64 1.05-4.13-2.07.55-3.94 2.31-3.79 4.38z" style="fill:#ff98b9"/><path d="M365.92 160.92c-6.26 1.92-10.72-11.1-10.72-11.1s-12.93 2.94-21.38-14.71c0 0 2.22 8.6 9.18 14.1 0 0-23.36 2.71-37.25-14.23 0 0 6 8.87 10.39 11.52 0 0-10.18-.52-16.59-7.24 0 0-1.52 11.92-3.91 15.65 0 0-8-40.14 29.92-44.2 0 0 23.5-3.66 35.93 12.8s4.43 37.41 4.43 37.41z" style="fill:#263238"/><path d="M358 165.33s7.21-12.73 12.91-10.28 1.07 20.36-5.06 23.34a6.49 6.49 0 0 1-9-2.65z" style="fill:#ad6359"/><path d="M369.41 160.15c.1 0 .13.12 0 .17-4.29 2.23-6.24 6.59-7.48 11 1.17-1.78 2.89-2.85 5.25-1.49a.14.14 0 0 1-.1.25 4 4 0 0 0-4.24 1.81 18.8 18.8 0 0 0-1.76 3.74c-.17.42-.91.27-.8-.2a.52.52 0 0 1 0-.11c-.58-5.64 3.08-14.01 9.13-15.17z" style="fill:#263238"/><path d="M364.93 178.84a2.1 2.1 0 1 1-2.51-1.59 2.1 2.1 0 0 1 2.51 1.59z" style="fill:#fff"/><path d="M367.43 231.65c-14.79 25.74-37.67 71.72-43.51 76-21.15 15.47-55.18 45.52-61.4 52.88-8 9.46 38.78 47.54 44.74 41.46 4.27-4.35 51.87-45.64 64.29-70.68 8.05-16.23 15.82-60.9 20.07-89.93 4.32-29.6-12.97-29.25-24.19-9.73z" style="fill:#ad6359"/><path d="M202.1 417.85c5 5.52 17.56-8 17.56-8a13.77 13.77 0 0 0 .93 9.3c2.68 5 11.68 3 11.68 3a16.88 16.88 0 0 0 2.54 9.65c3.05 4.51 12.41 3.77 12.41 3.77a14.84 14.84 0 0 0 7.59 7.07c8.95 3.31 20.48-5.6 27.87-11.19s23.1-28.37 26.54-32.41l-35.48-47.72s-40.26 15.65-48 23.45c-6.54 6.57-31.29 34.65-23.64 43.08z" style="fill:#ad6359"/><path d="M219.63 409.62c5.26-8.65 12.59-16 19.74-23.08.16-.16.4.1.24.25-7.19 6.92-12.7 15.94-19.6 23.13a.25.25 0 0 1-.38-.3zM232 421.4a26.57 26.57 0 0 1 4.83-4.94c1.83-1.63 3.69-3.22 5.57-4.79q5.64-4.71 11.52-9.13c.17-.13.42.1.24.25-3.75 3.13-7.44 6.32-11.06 9.61-1.8 1.65-3.6 3.31-5.38 5a31.29 31.29 0 0 1-5.25 4.5.36.36 0 0 1-.47-.5zM247.38 435.42c1-1.72 3.05-3 4.58-4.22 1.75-1.39 3.48-2.8 5.21-4.21 3.46-2.83 6.92-5.66 10.27-8.6.17-.15.41.1.25.25-3.4 3-6.75 6.06-10.18 9.05q-2.52 2.19-5.06 4.36c-1.44 1.23-3.11 2.93-4.94 3.55a.12.12 0 0 1-.13-.18z" style="fill:#263238"/><path d="m264 354.23 55.67 44.61s41.77-46.76 54-66.81c5.11-8.37 15.53-68.71 19.23-88.76 4.63-25-10.54-42-25.64-14.35-10.62 19.43-42.1 73.89-43.93 75.33S264 354.23 264 354.23z" style="fill:#0065ff"/><path d="M382.92 260.6H381a3.25 3.25 0 0 1-3.25-3.24 2.61 2.61 0 0 0-2.6-2.61h-2v-.63h2a3.25 3.25 0 0 1 3.24 3.24A2.61 2.61 0 0 0 381 260h1.91zm-24.36 50.33h-1.91a2.61 2.61 0 0 1-2.61-2.61 3.25 3.25 0 0 0-3.24-3.24h-2v.64h2a2.61 2.61 0 0 1 2.61 2.6 3.25 3.25 0 0 0 3.24 3.25h1.91zM323 350.84h-1.92a2.61 2.61 0 0 1-2.61-2.61 3.25 3.25 0 0 0-3.24-3.24h-2v.63h2a2.61 2.61 0 0 1 2.61 2.61 3.24 3.24 0 0 0 3.24 3.24H323zm-10.92 38.51h-1.91a2.61 2.61 0 0 1-2.61-2.61 3.25 3.25 0 0 0-3.24-3.24h-2v.63h2a2.62 2.62 0 0 1 2.61 2.61 3.24 3.24 0 0 0 3.24 3.24h1.91zm66.53-158.3-1.35-1.36a2.6 2.6 0 0 1 0-3.68 3.25 3.25 0 0 0 0-4.59l-1.43-1.42-.45.45 1.43 1.43a2.61 2.61 0 0 1 0 3.69 3.25 3.25 0 0 0 0 4.58l1.36 1.36zm-46.31 67.79a2.61 2.61 0 0 1 0-3.69 3.25 3.25 0 0 0 0-4.59l-.24-.24c-.1.19-.22.38-.33.57l.12.12a2.63 2.63 0 0 1 0 3.69 3.23 3.23 0 0 0 0 4.58l1.35 1.35.45-.44zm-1.43 26.63a2.61 2.61 0 0 1 3.69 0 3.24 3.24 0 0 0 4.58 0l1.43-1.43-.45-.45-1.43 1.41a2.61 2.61 0 0 1-3.68 0 3.24 3.24 0 0 0-4.59 0l-1.35 1.35.45.45zM350.78 279a2.61 2.61 0 0 1 3.69 0 3.26 3.26 0 0 0 4.59 0l1.43-1.43-.45-.45-1.43 1.43a2.62 2.62 0 0 1-3.69 0 3.23 3.23 0 0 0-4.58 0l-1.34 1.34.45.45zm-6.06 75.2a2.68 2.68 0 0 1 3.69 0 3.25 3.25 0 0 0 4.59 0l1.42-1.42-.44-.45-1.43 1.43a2.63 2.63 0 0 1-3.69 0 3.24 3.24 0 0 0-4.58 0l-1.36 1.35.45.45zm15.65-17.31a2.61 2.61 0 0 1 2.61-2.61 3.24 3.24 0 0 0 3.24-3.24v-1.92h-.63V331a2.61 2.61 0 0 1-2.61 2.61 3.24 3.24 0 0 0-3.24 3.24v2h.63zM325.08 377a2.61 2.61 0 0 1 2.61-2.61 3.24 3.24 0 0 0 3.24-3.24v-1.92h-.63v1.92a2.61 2.61 0 0 1-2.61 2.61 3.24 3.24 0 0 0-3.24 3.24v2h.63zm50.34-86.32a2.61 2.61 0 0 1 2.61-2.6 3.25 3.25 0 0 0 3.24-3.25v-1.91h-.63v1.91a2.61 2.61 0 0 1-2.61 2.61 3.25 3.25 0 0 0-3.24 3.24v2h.63zm-18.7-42.91a3.23 3.23 0 0 0 1.22-2.14zm-66 88.84a2.61 2.61 0 0 1-2.61-2.6.37.37 0 0 0 0-.11c-.2.16-.4.32-.59.5a3.23 3.23 0 0 0 3.21 2.84h1.91v-.63zm-.19 29.1a2.61 2.61 0 0 1 3.69 0 3.26 3.26 0 0 0 4.58 0l1.43-1.43-.45-.45-1.43 1.43a2.63 2.63 0 0 1-3.69 0 3.23 3.23 0 0 0-4.58 0l-1.35 1.35.44.45zm-17.12-17.85v1.91a2.61 2.61 0 0 1-2.61 2.61 3.25 3.25 0 0 0-3.24 3.24v1.45l.63.5v-1.95a2.62 2.62 0 0 1 2.61-2.61 3.24 3.24 0 0 0 3.24-3.24v-1.91z" style="fill:#fff"/><path d="M350.44 362.83c7.3-9.8 15-19.38 21.58-29.66 3.57-6.29 4.93-13.64 6.78-20.61 4.05-16.56 8.71-40.59 12.25-57.51a552.68 552.68 0 0 1-10.3 58c-1.71 6.55-3.23 13.31-6.27 19.43-6.86 11-15.6 20.64-24 30.37z" style="fill:#263238"/><path d="M388.1 271.74c1.45-3.94 3.44-7.67 4.44-11.76-.32 4.22-2.38 8.14-4.44 11.76zM283.42 345.4c21.23 15 41.31 34 45 37.06.18.14-.08.41-.25.25-3.5-3.19-28.77-22.41-45.06-37-.11-.2.1-.46.31-.31zM318.37 308.42c2.33-2.09 5.23-3.72 6.24-6.85q2.13-4.23 4.33-8.42c8.91-16.69 18.23-33.17 28.58-49a603.54 603.54 0 0 1-32.44 57.71c-.19.27-1.45 2.23-1.64 2.48-1.59 1.47-3.38 2.76-5.07 4.1z" style="fill:#263238"/><path d="M354.22 246.31c-1.14 3.62-2.76 7.09-3.32 10.85-.14-3.83 1.56-7.53 3.32-10.85z" style="fill:#263238"/></g><g><path d="M283.43 115.21a26.77 26.77 0 0 0 4.57-14.79c0-18.74-20.58-33.94-45.95-33.94s-45.92 15.2-45.92 33.94 20.56 33.93 45.92 33.93c12.31 0 23.46-3.56 31.7-9.39l15.82 4z" style="fill:#fffefd"/><path d="M283.43 115.21c9.06-13.82 3.5-29.84-9.42-38.83C257.8 65 235.25 64 217.47 72.23 208.7 76.4 200.69 83.49 197.78 93c-3.13 9.48.32 20 7.27 26.91 17.6 17.4 48.42 18.55 68.57 4.9l.09-.06 15.9 4.16-.13.15-6.05-13.82zm0 0 6.25 13.73.1.21-.22-.06-15.86-3.91c-7.17 5.51-18.22 8.82-27.87 9.37-14.82.89-30.72-3.31-41.4-14.07-11.78-11.8-11.62-28.89.34-40.52 18-17.26 49.49-18.23 69.57-4 13 9.1 18.41 25.5 9.09 39.27z" style="fill:#263238"/><path d="M225.54 100.42a4.76 4.76 0 1 1-4.76-4.77 4.76 4.76 0 0 1 4.76 4.77zM246.83 100.42a4.76 4.76 0 1 1-4.76-4.77 4.76 4.76 0 0 1 4.76 4.77zM268.12 100.42a4.76 4.76 0 1 1-4.76-4.77 4.76 4.76 0 0 1 4.76 4.77z" style="fill:#263238"/></g><g><path d="M458.68 447.9c-133.69.62-283.67.62-417.36 0 133.69-.61 283.67-.61 417.36 0z" style="fill:#263238"/></g><g><path d="M138 336.61c4.64 32.49 16.06 74.08 26.82 83.18 8.68 7.34 56.13 23 58.81 23.5 6.63 1.24 23.8-44.88 17-47.38-8.52-3.15-49.92-7.93-52.08-10.56s-15.55-24.46-30.67-49.59c-10.43-17.37-22.74-19.3-19.88.85z" style="fill:#f7a9a0"/><path d="M218.5 440.25c.76.47 11.59 7.1 18.42 9.72 5.08 1.95 19.89 7.17 22.59 1.78 1.85-3.67-6.49-7.77-12.33-10.79-3.07-1.6-6.72-5.26-5.61-7.23 2-3.44 9.84.84 15 4.43 9.92 6.93 22.89 19 29.71 14.25 2.57-1.79.08-5.67-3.71-9.59 6.29 4.72 13.08 8.73 16 6.85 1.69-1.07 1.9-2.72 1.18-4.68 2 .83 3.81.86 5.19-.37 2.34-2.08 1.57-5.5-.5-9.11a2.62 2.62 0 0 0 2.07-1.13c5.15-6.58-16-28.5-23.78-31-22.8-7.49-47.72-7.56-47.72-7.56-9.77 6.51-16.53 44.41-16.51 44.43z" style="fill:#f7a9a0"/><path d="M254.51 421.71a39.6 39.6 0 0 1 15 7.27c5.57 4.39 9.1 9.28 13.66 14.28.12.13-.08.33-.2.19-2.17-2.38-11.25-11.4-13.62-13.47a37.71 37.71 0 0 0-14.88-8.18l.04-.09zM259.68 412.2c6 2.18 12.1 4.4 17.53 7.77 5.94 3.69 10.37 9.26 14.73 14.62q3.93 4.85 7.64 9.85c.1.14-.09.33-.2.19q-6.63-8.31-13.75-16.21A49.79 49.79 0 0 0 270 416.66c-3.39-1.63-6.89-3-10.39-4.36-.03-.02 0-.13.07-.1zM266.94 404.11c5.84 1.72 10.93 3.2 15.92 6.83 6.61 4.8 12.74 12.47 14.89 15.18 2.37 3 4.64 6.08 6.86 9.19.09.13-.13.29-.22.16A198.81 198.81 0 0 0 287.77 416a39.23 39.23 0 0 0-9.57-7.44 71.18 71.18 0 0 0-11.27-4.41s-.02-.04.01-.04z" style="fill:#263238"/><path d="M221.62 442.71c-9.66-2.95-49-16.31-56.78-22.92-10.76-9.1-22.18-50.69-26.82-83.18-1.79-12.54 2.3-16.53 8.16-13.57z" style="opacity:.1"/><path d="m147.39 391.66 36-20.15s-14-24.89-28.37-43.65-20.1-8-18 12.38 10.37 51.42 10.37 51.42z" style="fill:#0065ff"/><path d="M177.88 366.47a331.2 331.2 0 0 0-30.09 16.9c-.15.09 0 .33.15.25a331.42 331.42 0 0 0 30.12-16.87c.15-.1-.01-.36-.18-.28z" style="fill:#263238"/><path d="m177 375.07-29.62 16.59S139 360.58 137 340.24c-1.31-12.87.51-21.91 5.67-22.07z" style="opacity:.1"/><path d="M46.18 448h136.16c1.71-1.28-14.06-93.53-34.11-125.38-3.75-6-21.72-15.06-35.79-4.28C70 350.93 44.58 446 46.18 448z" style="fill:#0065ff"/><path d="M108.56 322.18c-32.35 36.68-73.38 105-66.29 118.55 9 17.14 71.13 14 85.63 10.6 6.19-1.44-15.2-55-21.84-53.64-5.79 1.22-10.78 2.44-11 1.64s17.09-26.35 27.61-63.14c7.19-25.07-7.25-21.8-14.11-14.01z" style="fill:#f7a9a0"/><path d="M67.26 416.18c3.9-5.05 15.69-14.24 27.8-16.65.28 0 .47.12.23.23a134.25 134.25 0 0 0-27.95 16.51c-.05.05-.12-.04-.08-.09z" style="fill:#263238"/><path d="M151.55 372.26s-7.73-8.94-1.2-13.71 12.7 5.3 12.7 5.3z" style="fill:#455a64"/><path d="m211.82 430.52 1.72 11.48.59 3.77-3.44-1.68-10.38-5.11-49-67 11.5-8.41 49 67z" style="fill:#455a64"/><path style="fill:#37474f" d="m213.54 441.96.59 3.77-3.45-1.68 2.86-2.09z"/><path transform="rotate(-36.18 157.744 368.66)" style="fill:#37474f" d="M149.41 367h16.64v3.3h-16.64z"/><path transform="rotate(-36.18 159.896 371.615)" style="fill:#37474f" d="M151.57 369.95h16.64v3.3h-16.64z"/><path style="fill:#37474f" d="m154.15 377.84 4.33-3.17 15.35 26.01-1.66 1.07-18.02-23.91z"/><path d="M193.77 400.74c-.14 6.77-16.79 5-16.79 5a12.5 12.5 0 0 1 4.9 6.94c1.13 5-6.24 9-6.24 9a15.4 15.4 0 0 1 4 8.13c.6 4.91-6.27 10-6.27 10a13.55 13.55 0 0 1-1 9.38c-4.16 7.6-17.39 8.37-25.78 8.94s-32.76-5.67-37.53-6.4L105 397.84s36.94-13.28 46.91-12.55c8.36.62 42.09 5.11 41.86 15.45z" style="fill:#f7a9a0"/><path d="M176.84 405.56c-8.77-2.8-18.2-3.49-27.3-4.06a.16.16 0 0 0 0 .32c9.06.46 18.22 3.35 27.24 4.17a.22.22 0 0 0 .06-.43zM175.41 421a23.8 23.8 0 0 0-6.25-.5h-6.68c-4.45.09-8.9.28-13.34.6-.2 0-.23.32 0 .32 4.44-.08 8.88-.1 13.32 0 2.22.05 4.44.13 6.66.21a28.06 28.06 0 0 0 6.28-.05.32.32 0 0 0 .01-.58zM173.19 439.79c-1.72-.57-3.87-.23-5.65-.16q-3 .14-6.09.22c-4.06.13-8.11.25-12.17.23-.21 0-.22.31 0 .31 4.12 0 8.25.14 12.37.14h6.08c1.72 0 3.87.16 5.5-.5a.12.12 0 0 0-.04-.24z" style="fill:#263238"/><path d="m70.37 367.43 38.54 14.67s10.1-26.72 15.27-49.77-6.78-20.53-21.06-5.9-32.75 41-32.75 41z" style="fill:#0065ff"/><path d="M120.84 352.26a.09.09 0 0 0-.15-.08c-.67 1.25-1.33 2.51-2 3.77.7-2.55 1.35-5.12 1.93-7.71 0-.08-.11-.13-.14-.05q-2.94 8.35-5.75 16.74c-1.86 5.6-4 11.12-5.79 16.73-1.11-.22-1.71-.4-2.54-.54-.19 0-.31.18-.13.27a12.84 12.84 0 0 0 3.16 1.2c2.44-5.37 4.42-11.4 6.32-17 .94-2.75 1.79-5.52 2.57-8.3a50.55 50.55 0 0 0 2.52-5.03z" style="fill:#263238"/><path d="M109.25 374.66A331.26 331.26 0 0 0 77 362.41c-.16-.05-.25.21-.09.28A330.3 330.3 0 0 0 109.15 375c.18 0 .28-.27.1-.34z" style="fill:#263238"/><path style="fill:#0065ff" d="M181.69 450.25h152.12v3.74H181.69z"/><path style="fill:#ebebeb" d="M247.61 450.25v-5.57l-56.39 1.09-7.41 4.48h63.8z"/><path d="M247.61 450.25v-5.57s18.34.32 21.58 0 19.82-1.86 22.5-1.72 7.92 3.31 7.92 3.31v4zM332.31 450.25l-1.31-3.17s-8.06.17-9.22 0-12.1-3.32-14.46-2.89-7.69 2.08-7.69 2.08v4z" style="fill:#dbdbdb"/><path d="M122.17 318.9c.12 2.22 7.77 17.91 17.6 19.22 3.2.42 6.29-16.94 6.29-16.94l.52-1.23 7.28-17.23L132.51 283s-10.37 35-10.34 35.9z" style="fill:#f7a9a0"/><path d="m153.86 302.73-7.29 17.21-.51 1.24s-.57 3.14-1.45 6.72c-12.92-4.39-17.19-15.47-18.59-22.84C129 295 132.51 283 132.51 283z" style="fill:#263238"/><path d="M185.32 274.7c-2.54 40-26.77 43-35.4 42.42-7.82-.51-34.41-3.23-36-43.26s17.79-51.49 35.75-51.28 38.2 12.14 35.65 52.12z" style="fill:#f7a9a0"/><path d="M175.42 281.1c4.42.48 3.13 9.29-1 8.84s-2.7-9.24 1-8.84zM155 279c-4.4-.65-5.37 8.19-1.3 8.79s4.98-8.22 1.3-8.79zM179.06 275.94a25.38 25.38 0 0 1-2.61-.93 4.41 4.41 0 0 1-2.47-1.45 1.41 1.41 0 0 1 .23-1.72 3.54 3.54 0 0 1 3.56-.36 5.22 5.22 0 0 1 3 2.26 1.52 1.52 0 0 1-1.71 2.2zM151.91 273.6a25.25 25.25 0 0 0 2.76-.2 4.51 4.51 0 0 0 2.78-.75 1.43 1.43 0 0 0 .23-1.73 3.57 3.57 0 0 0-3.35-1.28 5.19 5.19 0 0 0-3.47 1.39 1.52 1.52 0 0 0 1.05 2.57zM152.83 303.16c.52.75 1 1.74 1.94 2a7.12 7.12 0 0 0 3-.1.1.1 0 0 1 .09.16 3.68 3.68 0 0 1-3.68.78 2.89 2.89 0 0 1-1.64-2.78c0-.15.21-.17.29-.06zM165.48 295s0 4.12-.27 6c0 .18-.49.2-1.15.15h-.07a9.14 9.14 0 0 1-8.32-4.59c-.11-.21.16-.37.32-.23a13.73 13.73 0 0 0 7.93 3.51c.21-.51-.22-7.12.07-7 1.24.39 3.39 1.25 4.19 1.57.06-2.67-.14-10.26 0-15.13 0-.3.48-.34.51-.05a128.58 128.58 0 0 1 1.24 17.08c-.02.39-3.74-.93-4.45-1.31z" style="fill:#263238"/><g style="opacity:.2"><path d="M138.56 284.68a.64.64 0 1 1-.33-.85.65.65 0 0 1 .33.85zM151.23 289.42a.64.64 0 0 1-.84.34.64.64 0 1 1 .51-1.18.63.63 0 0 1 .33.84zM145 291.91a.65.65 0 0 1-.85.33.64.64 0 0 1-.34-.84.65.65 0 0 1 1.19.51zM141 279.91a.64.64 0 1 1-.34-.84.64.64 0 0 1 .34.84zM145.43 285.77a.65.65 0 1 1-1.19-.51.65.65 0 1 1 1.19.51zM179.67 290.3a.65.65 0 0 1-.85.34.65.65 0 1 1 .51-1.19.65.65 0 0 1 .34.85zM173.59 291.68a.64.64 0 1 1-.34-.84.64.64 0 0 1 .34.84zM173.1 296.1a.65.65 0 1 1-1.19-.51.65.65 0 0 1 1.19.51zM178.3 295.11a.64.64 0 1 1-.34-.84.64.64 0 0 1 .34.84z"/></g><path d="M115.45 277.64c7.64 1 12.9-17.62 12.9-17.62s10.13-.94 17.68-17.11c0 0 1.71 18.43 33.34 23.08a27.18 27.18 0 0 0 2.12-16.56 114.68 114.68 0 0 1 3.23 18.57s14.26-23.47-5-38.37c-7.67-5.93-21-8.79-43.68-4.37 0 0-.57-13-3.3-12.06s-1.34 13.32-1.34 13.32-8-5.1-10-3.67c-1.71 1.23 6.14 5.75 6.14 5.75s-14.59.62-16.58 16.71c-1.86 14.8.71 31.84 4.49 32.33z" style="fill:#263238"/><path d="M130 229.1a16.46 16.46 0 0 0-19.87 9c-1.83 4.21-2 9.23-1.76 13.74a57.11 57.11 0 0 0 3.08 14.26c.09.26.48.09.39-.17a43.39 43.39 0 0 1-2-13.2c-.07-4.17.09-8.71 1.37-12.7a15.8 15.8 0 0 1 18.68-10.45c.25.02.36-.41.11-.48zM163.36 220.66a63.15 63.15 0 0 0-16.5 1.43 46.45 46.45 0 0 0-14.79 5.26.21.21 0 0 0 .18.39c9.28-3.68 19.67-4.87 29.61-5 9.3-.11 19.51 2.69 24.17 11.5a.13.13 0 0 0 .23-.11c-3.86-8.94-13.71-12.93-22.9-13.47z" style="fill:#263238"/><path d="M146 294.71a14 14 0 1 1 17.5-13.5 14 14 0 0 1-14 13.94 13.61 13.61 0 0 1-3.5-.44zm6.54-25.28a11.78 11.78 0 0 0-3-.39 12.14 12.14 0 1 0 3 .39zM176.67 298.6c-5.19-1.35-8.52-7.87-7.53-15.1a16.74 16.74 0 0 1 4.26-9.29 8.72 8.72 0 0 1 14.79 2 16.65 16.65 0 0 1 1.59 10.09c-1 7.65-6.52 13.23-12.21 12.45a8.43 8.43 0 0 1-.9-.15zm5.14-25.6a5.42 5.42 0 0 0-.7-.14 7.47 7.47 0 0 0-6.36 2.6 14.82 14.82 0 0 0-3.75 8.25c-.91 6.62 2.13 12.53 6.82 13.17s9.2-4.23 10.11-10.85a14.82 14.82 0 0 0-1.4-9 7.69 7.69 0 0 0-4.72-4.03z" style="fill:#455a64"/><path d="m163 282.77-.84-1.34c2-1.24 6.35-2.68 8.79.76l-1.29.91c-2.23-3.1-6.53-.44-6.66-.33zM106.13 278.07l-1.29-.9c.43-.61 4.24-5.88 7.81-6 3.33-.08 24 4.76 24.88 5l-.36 1.54c-5.92-1.39-21.91-5-24.48-4.92-2.36.04-5.53 3.83-6.56 5.28z" style="fill:#455a64"/><path d="M121.27 278s-6.77-13.67-12.85-11.44-2.28 21.14 3.93 24.59a6.77 6.77 0 0 0 9.52-2.24z" style="fill:#f7a9a0"/><path d="M109.64 272c-.1 0-.15.12-.06.17 4.34 2.57 6.12 7.22 7.15 11.91-1.11-1.91-2.84-3.13-5.38-1.84-.13.06 0 .27.09.26a4.17 4.17 0 0 1 4.32 2.13 20.32 20.32 0 0 1 1.61 4c.16.45.94.34.85-.16v-.11c.99-5.89-2.34-14.83-8.58-16.36z" style="fill:#263238"/></g><g><path style="fill:#c7c7c7" d="M355.52 435.2h107.34v12.7H355.52z"/><path style="fill:#dbdbdb" d="M376.57 435.2h4.38v12.7h-4.38zM439.74 435.2h10.49v12.7h-10.49z"/><path d="m401.21 438.57-2.56 3.34a.27.27 0 0 1-.23.12.24.24 0 0 1-.24-.12l-2.57-3.33v6.17a.27.27 0 0 1-.27.26.28.28 0 0 1-.29-.26v-6.95a.26.26 0 0 1 .12-.21.31.31 0 0 1 .39.07l2.85 3.7 2.84-3.7a.3.3 0 0 1 .39-.07l.08.09a.33.33 0 0 1 0 .14v6.95a.28.28 0 0 1-.55 0zM408.33 443.07h-3.65l-.71 1.77a.28.28 0 0 1-.26.17h-.11a.26.26 0 0 1-.16-.34l2.78-7a.32.32 0 0 1 .28-.16.26.26 0 0 1 .27.16l2.79 7a.27.27 0 0 1-.15.34h-.11a.29.29 0 0 1-.26-.17zm-3.45-.53h3.24l-1.61-4zM412.27 438h-2.42a.27.27 0 0 1-.27-.27.26.26 0 0 1 .27-.25h5.38a.27.27 0 0 1 .28.25.28.28 0 0 1-.28.27h-2.41v6.73a.28.28 0 0 1-.28.26.27.27 0 0 1-.27-.26zM422.29 441.51h-4.12v3.24a.28.28 0 0 1-.29.26.27.27 0 0 1-.27-.26v-7a.27.27 0 0 1 .27-.25.27.27 0 0 1 .29.25V441h4.12v-3.25a.27.27 0 0 1 .28-.25.26.26 0 0 1 .28.25v7a.27.27 0 0 1-.28.26.28.28 0 0 1-.28-.26z" style="fill:#fff"/><path style="fill:#0065ff" d="M352.82 383.64h107.34v16.37H352.82z"/><path d="M404.75 394.37a.24.24 0 0 1 .35 0 4.6 4.6 0 0 0 2.64 1 3.13 3.13 0 0 0 1.76-.49 1.37 1.37 0 0 0 .69-1.12 1.19 1.19 0 0 0-.65-1 5.54 5.54 0 0 0-1.86-.61 5.25 5.25 0 0 1-1.89-.63 1.55 1.55 0 0 1-.83-1.31 1.74 1.74 0 0 1 .84-1.41 3.46 3.46 0 0 1 1.93-.55 4.66 4.66 0 0 1 2.48.87.24.24 0 0 1 .07.34.26.26 0 0 1-.35.06 4.08 4.08 0 0 0-2.2-.79 3 3 0 0 0-1.63.45 1.29 1.29 0 0 0-.63 1 1.08 1.08 0 0 0 .59.91 4.87 4.87 0 0 0 1.72.57 5.63 5.63 0 0 1 2 .69 1.65 1.65 0 0 1 .88 1.41 1.86 1.86 0 0 1-.9 1.51 3.73 3.73 0 0 1-2.06.59 5.16 5.16 0 0 1-3-1.09.24.24 0 0 1 .05-.4zM416.56 388.15a4.47 4.47 0 0 1 2.59.83.26.26 0 0 1 0 .38.27.27 0 0 1-.38.05 3.83 3.83 0 0 0-2.25-.73 3.3 3.3 0 1 0 0 6.57 3.55 3.55 0 0 0 2.22-.73.28.28 0 0 1 .4.07.24.24 0 0 1 0 .37 4.39 4.39 0 0 1-2.59.82 3.83 3.83 0 1 1 0-7.63zM421.65 388.52a.28.28 0 0 1 .28-.26.27.27 0 0 1 .28.26v7a.27.27 0 0 1-.28.26.28.28 0 0 1-.28-.26zM425.06 388.52a.28.28 0 0 1 .28-.26h4.12a.27.27 0 1 1 0 .53h-3.84v3H429a.27.27 0 1 1 0 .53h-3.36v3h3.84a.27.27 0 1 1 0 .53h-4.15a.27.27 0 0 1-.25-.26zM432.43 389.37v6.15a.28.28 0 0 1-.55 0v-6.89a.26.26 0 0 1 .1-.29.29.29 0 0 1 .39.06l4.86 6.31v-6.12a.26.26 0 0 1 .27-.25.27.27 0 0 1 .29.25v6.93a.28.28 0 0 1-.29.26.27.27 0 0 1-.21-.1.1.1 0 0 1-.05 0zM444.48 388.15a4.47 4.47 0 0 1 2.59.83.26.26 0 0 1 .05.38.29.29 0 0 1-.39.05 3.83 3.83 0 0 0-2.25-.73 3.3 3.3 0 1 0 0 6.57 3.55 3.55 0 0 0 2.22-.73.28.28 0 0 1 .4.07.23.23 0 0 1 0 .37 4.39 4.39 0 0 1-2.59.82 3.83 3.83 0 1 1 0-7.63zM449.49 388.52a.28.28 0 0 1 .28-.26h4.12a.27.27 0 1 1 0 .53h-3.84v3h3.36a.27.27 0 1 1 0 .53h-3.36v3h3.84a.27.27 0 1 1 0 .53h-4.15a.27.27 0 0 1-.25-.26z" style="fill:#fff"/><path style="fill:#455a64" d="M361.86 383.64h26.98v16.37h-26.98z"/><path style="fill:#0065ff" d="M366.93 385.92h16.83v2.88h-16.83zM366.93 390.38h16.83v2.88h-16.83zM366.93 394.84h16.83v2.88h-16.83z"/><path style="fill:#a6a6a6" d="M346.19 400h55.39v14.82h-55.39zM401.58 400h51.2v14.82h-51.2z"/><path style="fill:#fff" d="M346.19 401.54h55.39v11.74h-55.39z"/><path d="M351 404q8.7-.12 17.41-.17l7.87-.05 17.41.05c5.81 0 2.07.09 7.88.17-5.81.08-2.07.14-7.88.17l-17.41.05-7.87-.05q-8.69-.08-17.41-.17zM351 406.26q8.7-.12 17.41-.17h25.28c5.81 0 2.07.09 7.88.17-5.81.08-2.07.14-7.88.17l-17.41.06-7.87-.06q-8.69-.04-17.41-.17zM351 408.57q8.7-.13 17.41-.18l7.87-.05 17.41.05c5.81 0 2.07.09 7.88.18-5.81.08-2.07.14-7.88.17l-17.41.05-7.87-.05q-8.69-.05-17.41-.17zM351 410.87q8.7-.12 17.41-.17l7.87-.05 17.41.05c5.81 0 2.07.09 7.88.17-5.81.08-2.07.14-7.88.17h-25.28q-8.69-.04-17.41-.17z" style="fill:#dbdbdb"/><path style="fill:#455a64" d="M412.92 400h7.21v14.82h-7.21zM445.28 400h4.84v14.82h-4.84z"/><path transform="rotate(180 419.425 425.005)" style="fill:#0065ff" d="M388.23 414.82h62.38v20.37h-62.38z"/><path transform="rotate(180 364.55 425.005)" style="fill:#0065ff" d="M340.87 414.82h47.36v20.37h-47.36z"/><path transform="rotate(180 419.425 425.005)" style="fill:#fff" d="M388.23 416.94h62.38v16.14h-62.38z"/><path d="M446.58 429.75q-7.31.13-14.59.18l-14.58.05-14.59-.05q-7.29 0-14.59-.18 7.31-.12 14.59-.17l14.59-.05 14.58.05q7.29.05 14.59.17zM446.58 426.59q-7.31.12-14.59.17l-14.58.05-14.59-.05q-7.29 0-14.59-.17 7.31-.12 14.59-.17l14.59-.06 14.58.06q7.29.05 14.59.17zM446.58 423.42q-7.31.12-14.59.17l-14.58.06-14.59-.06q-7.29 0-14.59-.17 7.31-.12 14.59-.17l14.59-.05 14.58.05q7.29.04 14.59.17zM446.58 420.26q-7.31.12-14.59.17l-14.58.05-14.59-.05q-7.29 0-14.59-.17 7.31-.13 14.59-.18l14.59-.05 14.58.06q7.29.05 14.59.17z" style="fill:#dbdbdb"/><path style="fill:#455a64" d="M348.41 414.82h8.87v20.37h-8.87z"/></g></svg>