<svg xmlns="http://www.w3.org/2000/svg" width="56.993" height="56.993" viewBox="0 0 56.993 56.993">
  <g id="_5a6c7159824611aa6f5204b0696eb48a" data-name="5a6c7159824611aa6f5204b0696eb48a" transform="translate(2 2)">
    <path id="Path_4" data-name="Path 4" d="M37.851,0h8.655a6.516,6.516,0,0,1,6.486,6.545v8.728a6.518,6.518,0,0,1-6.486,6.545H37.851a6.519,6.519,0,0,1-6.489-6.545V6.545A6.517,6.517,0,0,1,37.851,0ZM6.489,0h8.653A6.517,6.517,0,0,1,21.63,6.545v8.728a6.519,6.519,0,0,1-6.489,6.545H6.489A6.519,6.519,0,0,1,0,15.273V6.545A6.517,6.517,0,0,1,6.489,0Zm0,31.175h8.653a6.518,6.518,0,0,1,6.489,6.548v8.725a6.517,6.517,0,0,1-6.489,6.545H6.489A6.517,6.517,0,0,1,0,46.447V37.723A6.518,6.518,0,0,1,6.489,31.175Zm31.363,0h8.655a6.517,6.517,0,0,1,6.486,6.548v8.725a6.516,6.516,0,0,1-6.486,6.545H37.851a6.517,6.517,0,0,1-6.489-6.545V37.723A6.518,6.518,0,0,1,37.851,31.175Z" transform="translate(0 0)" fill="none" stroke="#200e32" stroke-linecap="round" stroke-linejoin="round" stroke-width="4" fill-rule="evenodd"/>
  </g>
</svg>
