<svg xmlns="http://www.w3.org/2000/svg" width="52.994" height="52.993" viewBox="0 0 52.994 52.993">
  <path id="_46d327217fef6efac68a22ac53aba6f9" data-name="46d327217fef6efac68a22ac53aba6f9" d="M15.686,30.391a6.737,6.737,0,0,1,6.73,6.786h0v9.033a6.751,6.751,0,0,1-6.73,6.783H6.73A6.768,6.768,0,0,1,0,46.209H0V37.177a6.753,6.753,0,0,1,6.73-6.786h8.956Zm30.577,0a6.753,6.753,0,0,1,6.73,6.786h0v9.033a6.768,6.768,0,0,1-6.73,6.783H37.308a6.751,6.751,0,0,1-6.73-6.783h0V37.177a6.737,6.737,0,0,1,6.73-6.786h8.956ZM15.686,0a6.752,6.752,0,0,1,6.73,6.786h0v9.033a6.734,6.734,0,0,1-6.73,6.783H6.73A6.751,6.751,0,0,1,0,15.819H0V6.786A6.769,6.769,0,0,1,6.73,0h8.956ZM46.263,0a6.769,6.769,0,0,1,6.73,6.786h0v9.033a6.751,6.751,0,0,1-6.73,6.783H37.308a6.734,6.734,0,0,1-6.73-6.783h0V6.786A6.752,6.752,0,0,1,37.308,0h8.956Z" transform="translate(0)" fill="#200e32"/>
</svg>
