<svg xmlns="http://www.w3.org/2000/svg" width="128" height="96" viewBox="0 0 128 96">
  <path id="Layer_2" data-name="Layer 2" d="M60,16V96c-4-4-12-12-30-12A79.75,79.75,0,0,0,5.266,87.795,4,4,0,0,1,0,84V12A4,4,0,0,1,1.287,9.06C6.885,3.9,19.228,0,30,0,44.744,0,53.314,8.016,57.92,12.321l.793.74A4,4,0,0,1,60,16Zm8,0V96c4-4,12-12,30-12a79.75,79.75,0,0,1,24.734,3.795A4,4,0,0,0,128,84V12a4,4,0,0,0-1.287-2.94C121.115,3.9,108.773,0,98,0,83.258,0,74.685,8.016,70.08,12.321c-.277.26-.539.506-.793.74A4,4,0,0,0,68,16Z" fill="#1e1e1e"/>
</svg>
