<svg xmlns="http://www.w3.org/2000/svg" width="71.044" height="57.111" viewBox="0 0 71.044 57.111">
  <path id="Layer_2" data-name="Layer 2" d="M31.427,8.38v41.9C29.332,48.188,25.141,44,15.713,44A41.772,41.772,0,0,0,2.758,45.985,2.1,2.1,0,0,1,0,44V6.285a2.1,2.1,0,0,1,.674-1.54C3.606,2.041,10.071,0,15.713,0c7.723,0,12.211,4.2,14.624,6.453l.415.388A2.1,2.1,0,0,1,31.427,8.38Zm4.19,0v41.9C37.712,48.188,41.9,44,51.33,44a41.772,41.772,0,0,1,12.955,1.988A2.094,2.094,0,0,0,67.044,44V6.285a2.1,2.1,0,0,0-.674-1.54C63.438,2.041,56.973,0,51.33,0,43.609,0,39.119,4.2,36.707,6.453c-.145.136-.282.265-.415.388a2.1,2.1,0,0,0-.674,1.539Z" transform="translate(2 2)" fill="none" stroke="#1e1e1e" stroke-width="4"/>
</svg>
